<svg width="76" height="127" viewBox="0 0 76 127" fill="none" xmlns="http://www.w3.org/2000/svg">
<g clip-path="url(#clip0_177_430)">
<path d="M67.3656 64.6701C67.3956 79.625 67.4255 94.578 67.4554 109.533C67.4574 110.207 67.4554 110.881 67.4554 111.555C67.24 115.001 67.0227 118.447 66.8073 121.892C64.7194 126.842 60.6076 127.332 56.037 126.808C55.6801 124.93 55.3211 123.05 54.9642 121.172C53.672 118.926 51.5862 118.331 49.1872 118.335C41.7172 118.345 34.2492 118.335 26.7793 118.339C21.11 118.343 18.9384 121.376 20.7032 126.814C16.1466 127.254 11.7456 127.218 8.74841 122.884C8.40941 119.128 8.07041 115.369 7.7334 111.613C7.76331 93.5799 7.77926 75.5448 7.84108 57.5116C7.85105 54.5975 8.06642 51.6833 8.18606 48.7671C7.60777 51.7593 8.94782 53.2314 11.8413 53.7994C13.5602 54.1374 15.1894 54.9275 16.8605 55.5155C16.4597 56.8476 16.0589 58.1817 15.658 59.5138C15.6361 75.8588 15.5843 92.2058 15.6441 108.551C15.6481 109.889 16.4178 111.223 16.8326 112.559C18.1028 113.565 19.3731 114.569 20.6433 115.575C21.3553 115.747 22.0672 116.067 22.7791 116.071C32.5901 116.113 42.4012 116.127 52.2103 116.095C53.01 116.093 53.8096 115.707 54.6092 115.501L54.7588 115.549L54.9064 115.497C55.3052 115.117 55.704 114.737 56.1028 114.357L56.0689 114.373C56.4598 114.177 56.8486 113.979 57.2395 113.783L57.2215 113.807C57.6104 113.417 57.9973 113.027 58.3861 112.637L58.3582 112.657C58.9165 110.815 59.9375 108.979 59.9575 107.131C60.121 92.7819 60.0911 78.431 60.121 64.0821C62.5379 64.2801 64.9508 64.4761 67.3656 64.6701Z" fill="#FAC713"/>
<path d="M8.11833 47.551C7.45429 47.543 6.79025 47.525 6.1262 47.527C3.74323 47.531 1.01327 47.837 0.377147 44.7228C-0.364666 41.0846 -0.314813 37.5744 3.38827 36.1823C8.31575 34.3282 10.1444 31.054 9.4524 25.7496C8.93792 21.8214 9.34671 17.7691 9.35269 13.7729C9.36067 9.76664 10.3777 8.72057 14.328 8.63457C14.3938 11.0987 14.4596 13.5629 14.5254 16.027C14.326 16.9151 13.9771 17.7991 13.9551 18.6892C13.8833 21.6334 13.7757 24.5896 13.9691 27.5218C14.1964 30.998 13.9611 34.1382 10.4534 36.0003C10.3876 36.0343 10.4634 36.3383 10.4794 36.6383C14.4497 36.6383 18.42 36.6383 22.3923 36.6383C25.7823 36.6143 29.1703 36.5903 32.5603 36.5683C35.4199 36.5823 38.2774 36.5963 41.137 36.6103C49.4565 36.6103 57.776 36.6103 66.5062 36.6103C63.4512 32.2381 63.4532 32.2381 63.4572 26.9577C63.4592 24.2055 63.4612 21.4514 63.4592 18.6992C63.4552 14.4349 62.2049 13.2109 57.8498 13.2069C53.1137 13.2009 48.3837 13.2009 43.6516 13.2009C43.7932 11.6608 43.9348 10.1207 44.0744 8.58057C50.4276 8.59657 56.7809 8.64057 63.1342 8.61657C65.5231 8.60657 67.1842 9.40862 67.5771 11.9788C67.6409 18.3112 67.7047 24.6416 67.7685 30.974C68.9092 32.3401 69.8624 33.9502 71.2323 35.0222C73.9982 37.1864 76.4948 39.2785 75.9145 43.3428C75.4638 46.4929 74.6423 47.399 71.4078 47.517C70.0937 47.565 68.7756 47.533 67.4594 47.535C47.6797 47.539 27.898 47.545 8.11833 47.551Z" fill="#FAC713"/>
<path d="M8.11842 47.5512C27.8981 47.5452 47.6798 47.5392 67.4595 47.5352C67.4276 53.2475 67.3977 58.9599 67.3658 64.6722C64.9509 64.4782 62.536 64.2822 60.1231 64.0882C60.0793 62.6661 60.2588 61.194 59.9437 59.8359C59.4073 57.5338 59.1979 54.8496 56.0791 54.3036L56.099 54.3296C54.9564 53.7475 53.8217 52.6775 52.6731 52.6615C42.7244 52.5295 32.7718 52.5755 22.8211 52.6135C22.1192 52.6155 21.4172 52.9895 20.7153 53.1895L20.7472 53.1615C20.4022 53.2395 20.0572 53.3175 19.7123 53.3955C18.7611 54.1036 17.8119 54.8116 16.8607 55.5197C15.1896 54.9316 13.5604 54.1416 11.8415 53.8036C8.94798 53.2335 7.60793 51.7634 8.18622 48.7712C8.16229 48.3652 8.14036 47.9572 8.11842 47.5512Z" fill="#D4A82A"/>
<path d="M14.5255 16.0248C14.4597 13.5607 14.3939 11.0965 14.3281 8.63237C15.0181 6.22822 15.6283 3.79607 16.4519 1.43792C16.6712 0.809881 17.4848 0.171841 18.1429 0.00583019C18.5038 -0.0841755 19.104 0.809881 19.6006 1.25591C20.1809 1.77994 20.6834 2.55999 21.3634 2.776C24.5061 3.77607 26.6757 5.8502 28.295 8.62237C28.973 10.3765 29.653 12.1306 30.331 13.8847C30.1714 15.9888 30.0119 18.091 29.8524 20.1931C26.6598 21.3552 23.4652 22.5152 20.2726 23.6773C18.3563 21.1272 16.4399 18.575 14.5255 16.0248ZM22.841 6.18022C24.4842 10.2445 26.1513 14.3607 27.7685 18.359C28.8772 13.6487 26.5361 7.81632 22.841 6.18022ZM21.7522 5.20616C21.7124 5.14615 21.6725 5.08815 21.6346 5.02815C21.5867 5.13415 21.5409 5.23816 21.493 5.34417C21.5508 5.36217 21.6346 5.41017 21.6625 5.38817C21.7104 5.35017 21.7243 5.26816 21.7522 5.20616Z" fill="#9CD5E5"/>
<path d="M54.9643 121.174C55.3213 123.052 55.6802 124.932 56.0372 126.81C45.4125 126.816 34.7878 126.822 24.1611 126.828C24.1811 121.334 24.3247 121.196 29.978 121.192C38.3074 121.188 46.6349 121.18 54.9643 121.174Z" fill="#ECA922"/>
<path d="M54.9642 121.174C46.6367 121.18 38.3072 121.186 29.9798 121.192C24.3265 121.196 24.1809 121.334 24.1629 126.828C23.0103 126.824 21.8577 126.822 20.7051 126.818C18.9403 121.38 21.1099 118.347 26.7812 118.343C34.2512 118.339 41.7192 118.349 49.1892 118.339C51.5861 118.335 53.672 118.929 54.9642 121.174Z" fill="#D4A82A"/>
<path d="M44.0762 8.5803C43.9346 10.1204 43.793 11.6605 43.6515 13.2006C43.8947 16.8508 44.138 20.5031 44.3793 24.1533C43.6854 24.2293 42.9675 24.4573 42.3014 24.3533C39.4479 23.9073 36.6102 23.3612 33.7666 22.8532C34.0797 21.9931 34.2911 21.0791 34.7218 20.285C36.1137 17.7289 37.5853 15.2187 39.0271 12.6906C39.5914 11.3345 40.1538 9.98039 40.7181 8.6243C41.4839 7.15821 42.2496 5.69412 43.0153 4.22803C43.3683 4.30603 43.7213 4.38404 44.0762 4.46004C44.0762 5.83213 44.0762 7.20622 44.0762 8.5803Z" fill="#7FC476"/>
<path d="M66.8074 121.893C67.0227 118.447 67.2401 115.001 67.4555 111.557C71.0349 110.163 72.1496 110.891 72.1736 114.661C72.1895 117.023 72.1756 119.387 72.1835 121.749C72.1895 123.577 72.347 125.6 69.7926 125.75C67.1125 125.908 66.935 123.859 66.8074 121.893Z" fill="#323232"/>
<path d="M7.73314 111.615C8.07214 115.371 8.41114 119.129 8.74815 122.886C8.2895 124.514 7.83085 126.194 5.57151 125.758C3.5076 125.358 3.39991 123.726 3.41188 122.056C3.42982 119.325 3.37598 116.593 3.46572 113.867C3.55745 110.969 4.99122 110.247 7.73314 111.615Z" fill="#323232"/>
<path d="M40.7183 8.62455C40.154 9.98063 39.5917 11.3347 39.0273 12.6908C36.6045 12.8488 34.1776 12.9728 31.7607 13.1928C31.2662 13.2388 30.8056 13.6469 30.329 13.8869C29.649 12.1328 28.971 10.3787 28.293 8.62455C32.4348 8.62255 36.5766 8.62255 40.7183 8.62455Z" fill="#FAC713"/>
<path d="M16.8587 55.5193C17.8099 54.8112 18.7591 54.1032 19.7103 53.3951C20.0552 53.3171 20.4002 53.2391 20.7452 53.1611L20.7133 53.1891C30.4845 53.1951 40.2557 53.1391 50.0269 53.2571C52.0549 53.2811 54.073 53.9552 56.097 54.3292L56.0771 54.3032C58.7911 57.2574 59.5947 60.7896 59.505 64.7219C59.3793 70.2222 59.6166 75.7305 59.4471 81.2269C59.1261 91.7056 60.51 102.248 58.3584 112.663L58.3863 112.643C57.9974 113.033 57.6106 113.423 57.2217 113.813L57.2397 113.789C56.8488 113.985 56.46 114.183 56.0691 114.379L56.103 114.363C55.7042 114.743 55.3054 115.123 54.9065 115.503L54.759 115.555C54.759 115.555 54.6094 115.507 54.6074 115.509C44.7106 115.499 34.8157 115.485 24.9209 115.485C23.4951 115.485 22.0693 115.549 20.6435 115.585C19.3733 114.579 18.103 113.575 16.8327 112.569C16.6214 110.305 16.2365 108.041 16.2265 105.776C16.1707 91.3455 16.2086 76.9146 16.1747 62.4837C16.1727 61.4957 15.8377 60.5096 15.6582 59.5215C16.059 58.1854 16.4578 56.8514 16.8587 55.5193ZM56.0751 59.4895C54.6852 58.5195 53.3152 56.7394 51.9054 56.7094C42.0843 56.4973 32.2553 56.6494 22.4283 56.6854C20.3683 57.3814 19.5507 58.7395 19.5627 60.9916C19.6385 76.4986 19.6165 92.0056 19.5946 107.513C19.5906 110.021 20.488 111.743 23.1023 112.243C23.7763 112.559 24.4503 113.145 25.1263 113.151C33.6053 113.213 42.0843 113.213 50.5633 113.151C51.2373 113.145 51.9054 112.549 52.5774 112.227C53.6821 111.407 54.7869 110.585 55.8956 109.765C56.1409 108.819 56.5955 107.873 56.5995 106.925C56.6454 92.0056 56.6434 77.0866 56.6115 62.1697C56.6075 61.2716 56.2625 60.3796 56.0751 59.4895Z" fill="#FCE380"/>
<path d="M58.3601 112.661C60.5118 102.246 59.1279 91.7056 59.4489 81.225C59.6184 75.7286 59.3811 70.2183 59.5068 64.7199C59.5965 60.7897 58.7909 57.2555 56.0789 54.3013C59.1977 54.8473 59.407 57.5315 59.9435 59.8316C60.2585 61.1877 60.0791 62.6618 60.1229 64.0839C60.093 78.4348 60.1229 92.7857 59.9594 107.135C59.9375 108.983 58.9165 110.821 58.3601 112.661Z" fill="#FBE99E"/>
<path d="M15.6579 59.5176C15.8374 60.5056 16.1724 61.4917 16.1744 62.4798C16.2083 76.9107 16.1704 91.3416 16.2263 105.772C16.2343 108.037 16.6211 110.301 16.8325 112.565C16.4197 111.229 15.65 109.893 15.646 108.555C15.5842 92.2096 15.634 75.8646 15.6579 59.5176Z" fill="#FBE99E"/>
<path d="M20.6436 115.581C22.0694 115.547 23.4952 115.481 24.9209 115.481C34.8158 115.481 44.7106 115.497 54.6075 115.505C53.8098 115.711 53.0102 116.097 52.2105 116.099C42.3994 116.131 32.5884 116.117 22.7793 116.075C22.0654 116.073 21.3535 115.753 20.6436 115.581Z" fill="#FBE99E"/>
<path d="M57.2236 113.811C57.6125 113.421 57.9993 113.031 58.3882 112.641C57.9993 113.031 57.6105 113.421 57.2236 113.811Z" fill="#FBE99E"/>
<path d="M44.3814 24.1534C44.1381 20.5031 43.8948 16.8529 43.6535 13.2007C48.3856 13.2007 53.1157 13.2007 57.8477 13.2047C62.2029 13.2087 63.4532 14.4328 63.4572 18.697C63.4612 21.4492 63.4572 24.2014 63.4552 26.9555C63.4512 32.2379 63.4512 32.2379 66.5042 36.6082C57.7759 36.6082 49.4564 36.6082 41.137 36.6082C41.2446 35.4381 41.3523 34.266 41.458 33.0979C42.4311 30.1157 43.4063 27.1336 44.3814 24.1534ZM60.8229 27.0536C62.6954 25.2514 61.3095 23.9814 60.0153 22.8693C59.2416 22.2032 58.1847 21.8692 57.8517 21.6952C58.8308 20.1691 59.7082 18.801 60.5856 17.433C59.4809 16.9189 58.3961 16.0309 57.2694 15.9749C55.2573 15.8749 52.7966 15.9069 52.2821 18.447C52.0887 19.4051 53.4467 20.6772 54.1406 21.8832C54.0529 22.4513 53.9033 23.4113 53.7538 24.3694C52.6211 26.2855 50.8683 28.1156 50.5931 30.1497C50.4376 31.2958 52.4915 33.2139 53.9652 33.958C55.0639 34.514 57.5606 34.276 58.1488 33.46C59.4689 31.6318 59.9834 29.2237 60.8229 27.0536Z" fill="#ECA922"/>
<path d="M14.5252 16.0249C16.4416 18.5771 18.3579 21.1272 20.2723 23.6794C21.0261 26.2815 21.7779 28.8857 22.5316 31.4879C22.4838 33.204 22.4379 34.9201 22.3901 36.6382C18.4198 36.6382 14.4495 36.6382 10.4772 36.6382C10.4612 36.3382 10.3854 36.0342 10.4513 36.0002C13.9609 34.138 14.1962 30.9998 13.9669 27.5216C13.7755 24.5894 13.8811 21.6313 13.9529 18.6891C13.9769 17.795 14.3258 16.911 14.5252 16.0249Z" fill="#ECA922"/>
<path d="M22.3901 36.6381C22.438 34.922 22.4839 33.2059 22.5317 31.4878C24.6196 30.7598 26.7054 30.0317 28.7933 29.3057C29.9917 31.5318 31.1922 33.7579 32.3907 35.9841C32.4465 36.1781 32.5023 36.3741 32.5602 36.5681C29.1682 36.5901 25.7801 36.6141 22.3901 36.6381Z" fill="#9CD5E5"/>
<path d="M32.5581 36.5665C32.5023 36.3725 32.4465 36.1764 32.3906 35.9824C32.7197 34.4383 33.0487 32.8942 33.3797 31.3481C36.0738 31.9302 38.7658 32.5122 41.4599 33.0943C41.3522 34.2643 41.2445 35.4364 41.1368 36.6065C38.2753 36.5945 35.4177 36.5805 32.5581 36.5665Z" fill="#7FC476"/>
<path d="M56.0966 54.3274C54.0726 53.9534 52.0545 53.2814 50.0265 53.2554C40.2573 53.1373 30.4841 53.1934 20.7129 53.1874C21.4148 52.9873 22.1168 52.6133 22.8187 52.6113C32.7694 52.5713 42.722 52.5273 52.6707 52.6593C53.8213 52.6753 54.956 53.7474 56.0966 54.3274Z" fill="#FBE99E"/>
<path d="M28.7933 29.3059C26.7055 30.0339 24.6196 30.762 22.5318 31.488C21.778 28.8859 21.0262 26.2817 20.2725 23.6795C23.4651 22.5195 26.6596 21.3574 29.8522 20.1953C29.1104 23.6915 31.0128 26.3317 32.6978 29.0419C31.3957 29.1299 30.0935 29.2179 28.7933 29.3059Z" fill="#09548F"/>
<path d="M32.6978 29.042C31.0108 26.3318 29.1104 23.6917 29.8522 20.1954C30.0117 18.0933 30.1712 15.9912 30.3308 13.887C30.8074 13.645 31.268 13.237 31.7625 13.191C34.1794 12.971 36.6063 12.847 39.0291 12.689C37.5874 15.2171 36.1157 17.7293 34.7238 20.2854C34.2911 21.0795 34.0797 21.9936 33.7686 22.8536C33.5932 25.0257 33.4177 27.1999 33.2402 29.372C33.0607 29.262 32.8793 29.152 32.6978 29.042Z" fill="#ECA922"/>
<path d="M22.8408 6.18018C26.5379 7.81628 28.877 13.6486 27.7683 18.3589C26.1491 14.3627 24.484 10.2444 22.8408 6.18018Z" fill="#E5E9EC"/>
<path d="M21.7519 5.20633C21.724 5.27034 21.71 5.35234 21.6622 5.38834C21.6343 5.41034 21.5505 5.36034 21.4927 5.34434C21.5405 5.23833 21.5864 5.13433 21.6343 5.02832C21.6721 5.08632 21.712 5.14633 21.7519 5.20633Z" fill="#E5E9EC"/>
<path d="M33.2402 29.3719C33.4157 27.1998 33.5932 25.0277 33.7687 22.8535C36.6123 23.3615 39.4499 23.9076 42.3035 24.3536C42.9696 24.4576 43.6854 24.2276 44.3814 24.1536C43.4083 27.1358 42.4331 30.118 41.46 33.0982C38.7679 32.5141 36.0739 31.9321 33.3818 31.3521C33.332 30.692 33.2861 30.032 33.2402 29.3719Z" fill="#FCE380"/>
<path d="M55.8936 109.759C54.7888 110.579 53.6841 111.401 52.5774 112.221C42.7523 112.227 32.9273 112.233 23.1002 112.239C20.4859 111.739 19.5906 110.019 19.5926 107.509C19.6145 92.0019 19.6365 76.4949 19.5607 60.9879C19.5487 58.7358 20.3663 57.3777 22.4262 56.6816C22.839 56.8897 23.2279 57.1917 23.6646 57.2897C31.2662 58.9898 38.8558 60.7499 46.4853 62.308C49.6021 62.944 52.8107 63.128 55.9773 63.5181C56.0053 69.8945 56.0671 76.2689 56.0511 82.6453C56.0312 91.6838 55.9494 100.72 55.8936 109.759ZM35.8886 92.6799C35.8886 91.4158 35.8886 90.5198 35.8886 89.3317C34.2534 89.3317 32.7358 89.5097 31.2861 89.2737C30.1953 89.0977 28.3268 88.4316 28.3049 87.9136C28.2212 86.0635 28.616 84.0774 31.0927 83.6493C31.0129 82.3033 30.9332 80.9552 30.8414 79.4391C29.1743 80.0391 27.8921 80.5011 26.6079 80.9632C27.1762 82.3893 27.1762 82.3893 25.4573 85.4174C23.3635 89.1037 24.9428 92.3139 29.1305 92.6499C31.2761 92.8199 33.4458 92.6799 35.8886 92.6799ZM41.6177 93.654C41.7034 93.438 41.7892 93.2219 41.8749 93.0059C43.4064 92.8759 44.9379 92.6939 46.4714 92.6279C50.0887 92.4739 51.9971 90.2138 50.8784 86.7835C50.0867 84.3574 48.6071 82.1552 47.3587 79.7051C46.1084 80.5091 45.3447 81.0012 44.4713 81.5612C45.2609 82.9573 46.1623 84.1154 46.583 85.4294C46.9499 86.5675 47.2391 88.6837 46.7465 88.9717C45.223 89.8657 43.2509 90.6278 41.7951 88.5016C40.6505 89.2937 39.5238 90.0737 38.3074 90.9138C39.5896 91.9759 40.6027 92.8139 41.6177 93.654ZM45.0854 75.6028C44.8083 75.6768 44.5291 75.7508 44.2519 75.8248C43.4343 74.4888 42.5848 73.1687 41.8051 71.8106C39.9845 68.6444 37.1149 68.0203 34.6023 70.6465C32.8515 72.4766 31.6291 74.8168 30.1076 77.0209C31.3858 77.803 32.1655 78.279 32.8894 78.723C34.4747 76.5149 35.9723 74.4308 38.0562 71.5286C39.3862 74.1587 40.2696 75.9068 41.155 77.655C40.9098 77.795 40.6645 77.935 40.4192 78.073C41.5778 78.579 42.7364 79.085 44.0804 79.6731C44.4633 78.125 44.7744 76.8649 45.0854 75.6028Z" fill="#FAC713"/>
<path d="M55.9793 63.5182C52.8127 63.1281 49.6041 62.9441 46.4873 62.3081C38.8558 60.752 31.2682 58.9919 23.6666 57.2898C23.2299 57.1918 22.841 56.8897 22.4282 56.6817C32.2553 56.6477 42.0843 56.4957 51.9053 56.7077C53.3152 56.7377 54.6852 58.5178 56.0751 59.4879C56.0431 60.832 56.0112 62.1741 55.9793 63.5182Z" fill="#D4A82A"/>
<path d="M23.1001 112.239C32.9251 112.233 42.7522 112.225 52.5772 112.221C51.9052 112.545 51.2372 113.141 50.5632 113.147C42.0841 113.211 33.6051 113.211 25.1261 113.147C24.4481 113.143 23.7761 112.557 23.1001 112.239Z" fill="#FBE99E"/>
<path d="M55.9793 63.518C56.0112 62.1759 56.0431 60.8318 56.075 59.4897C56.2605 60.3818 56.6074 61.2719 56.6094 62.1639C56.6413 77.0829 56.6433 92.0018 56.5975 106.919C56.5955 107.867 56.1388 108.813 55.8936 109.759C55.9494 100.72 56.0292 91.6818 56.0531 82.6452C56.069 76.2688 56.0072 69.8924 55.9793 63.518Z" fill="#FBE99E"/>
<path d="M53.7557 24.3694C53.9053 23.4114 54.0528 22.4533 54.1426 21.8833C53.4486 20.6772 52.0906 19.4051 52.284 18.4471C52.7985 15.9069 55.2573 15.8749 57.2713 15.9749C58.398 16.0309 59.4828 16.921 60.5876 17.433C59.7102 18.8011 58.8327 20.1692 57.8536 21.6953C58.1866 21.8693 59.2435 22.2033 60.0173 22.8694C61.3114 23.9794 62.6954 25.2515 60.8249 27.0536C57.5226 28.0597 55.7099 27.3716 53.7557 24.3694Z" fill="#323232"/>
<path d="M53.7557 24.3696C55.7079 27.3738 57.5225 28.0619 60.8248 27.0538C59.9833 29.2259 59.4688 31.6341 58.1527 33.4602C57.5644 34.2763 55.0698 34.5143 53.969 33.9582C52.4954 33.2142 50.4414 31.2961 50.597 30.15C50.8722 28.1159 52.623 26.2857 53.7557 24.3696Z" fill="#9198A0"/>
<path d="M33.2404 29.372C33.2862 30.032 33.3321 30.692 33.3779 31.3521C33.0489 32.8962 32.7199 34.4403 32.3909 35.9844C31.1904 33.7582 29.9919 31.5321 28.7935 29.306C30.0956 29.218 31.3978 29.13 32.6999 29.0439C32.8794 29.152 33.0609 29.262 33.2404 29.372Z" fill="#E5E9EC"/>
<path d="M35.8883 92.6798C33.4455 92.6798 31.2759 92.8218 29.1302 92.6498C24.9425 92.3138 23.3612 89.1036 25.457 85.4173C27.176 82.3911 27.176 82.3911 26.6076 80.9631C27.8919 80.501 29.1741 80.039 30.8412 79.439C30.9309 80.9551 31.0107 82.3031 31.0924 83.6492C28.6137 84.0753 28.2189 86.0634 28.3046 87.9135C28.3286 88.4315 30.1971 89.0976 31.2859 89.2736C32.7356 89.5096 34.2511 89.3316 35.8883 89.3316C35.8883 90.5177 35.8883 91.4157 35.8883 92.6798Z" fill="#FEFEFE"/>
<path d="M41.6176 93.654C40.6046 92.8139 39.5896 91.9739 38.3093 90.9138C39.5257 90.0717 40.6524 89.2937 41.797 88.5016C43.2508 90.6258 45.2249 89.8657 46.7485 88.9717C47.239 88.6836 46.9499 86.5695 46.5849 85.4294C46.1622 84.1154 45.2608 82.9573 44.4732 81.5612C45.3466 80.9992 46.1103 80.5071 47.3606 79.7051C48.609 82.1552 50.0866 84.3574 50.8803 86.7835C52.001 90.2137 50.0926 92.4739 46.4733 92.6279C44.9378 92.6939 43.4083 92.8759 41.8768 93.0059C41.7871 93.2219 41.7033 93.4379 41.6176 93.654Z" fill="#FEFEFE"/>
<path d="M45.0853 75.6027C44.7742 76.8628 44.4631 78.1249 44.0802 79.673C42.7362 79.0849 41.5776 78.5789 40.419 78.0729C40.6643 77.9329 40.9096 77.7929 41.1549 77.6549C40.2715 75.9067 39.3861 74.1586 38.056 71.5285C35.9721 74.4306 34.4745 76.5148 32.8892 78.7229C32.1634 78.2789 31.3857 77.8029 30.1074 77.0208C31.6289 74.8167 32.8513 72.4765 34.6022 70.6464C37.1148 68.0202 39.9843 68.6443 41.8049 71.8105C42.5866 73.1686 43.4341 74.4867 44.2517 75.8247C44.5289 75.7527 44.8081 75.6787 45.0853 75.6027Z" fill="#FEFEFE"/>
</g>
<defs>
<clipPath id="clip0_177_430">
<rect width="76" height="127" fill="white"/>
</clipPath>
</defs>
</svg>
