<svg width="72" height="127" viewBox="0 0 72 132" fill="none" xmlns="http://www.w3.org/2000/svg">
<g clip-path="url(#clip0_177_471)">
<path d="M7.69343 56.5622C6.97961 56.5355 6.26767 56.5013 5.55385 56.4861C1.74678 56.4081 1.06506 55.8641 0.115182 52.1132C-0.428685 49.9639 1.01974 46.7304 3.0649 45.5796C4.97977 44.5011 6.90596 43.4436 8.82649 42.3765C9.00211 41.4369 9.31559 40.5011 9.33259 39.5595C9.41757 34.8576 9.57619 30.1481 9.40057 25.4538C9.28726 22.4428 10.3523 20.5312 13.1245 19.5307C13.2454 19.3919 13.3682 19.2511 13.489 19.1123C14.1594 21.6382 14.1594 21.6382 16.2499 22.8004C13.642 24.5065 13.4097 27.0743 13.574 29.8818C13.7062 32.1338 13.3398 34.4392 13.6571 36.6532C14.2406 40.7027 12.913 43.609 9.37035 45.5454C9.29482 45.5872 9.34392 45.8592 9.33259 46.0817C14.6107 46.0817 19.887 46.0817 25.1633 46.0817C27.7844 46.2758 30.4036 46.4698 33.0248 46.6619C36.5051 46.4964 39.9855 46.3328 43.4678 46.1673C46.0681 46.1673 48.6666 46.1673 51.267 46.1692C55.0382 46.1692 58.8112 46.1692 62.5824 46.1692C62.7222 45.9334 62.86 45.6975 62.9997 45.4598C59.2984 43.4455 60.0406 40.0997 60.0255 36.986C60.0123 34.2718 60.0387 31.5575 60.0274 28.8452C60.0104 24.9117 58.5922 23.4452 54.6775 23.3938C50.7269 23.3444 46.7763 23.3596 42.8257 23.3482C42.5066 22.4105 42.3781 21.7352 43.8001 21.6496C45.2542 21.5621 46.0134 20.6605 45.5885 19.0837C49.9356 19.0989 54.2884 19.0153 58.6299 19.1845C60.0274 19.2397 61.4003 19.9625 62.7845 20.379C62.945 22.4181 63.2113 24.4552 63.2434 26.498C63.3151 30.8918 63.232 35.2875 63.2925 39.6813C63.3057 40.6057 63.6626 41.5263 63.8609 42.4488C65.6454 43.6471 67.43 44.8454 69.2146 46.0437C71.7696 48.2064 72.8026 51.7062 71.3069 54.4261C70.8405 55.2745 69.3826 55.7576 68.2873 56.022C66.8087 56.3796 65.2413 56.3643 63.7117 56.5089C45.0389 56.5241 26.3662 56.5431 7.69343 56.5622Z" fill="#13AD65"/>
<path d="M7.2854 116.962C7.3836 116.856 7.50446 116.801 7.64798 116.797C7.85759 115.791 8.24661 114.785 8.2485 113.776C8.29004 96.3306 8.28249 78.8848 8.28815 61.4409C10.9697 62.1618 13.6513 62.8827 16.3328 63.6036C15.8003 64.4976 15.2659 65.3896 14.7334 66.2836C14.3764 67.2156 13.7117 68.1457 13.706 69.0796C13.64 83.427 13.6494 97.7762 13.6853 112.124C13.6872 112.949 14.0705 113.775 14.2764 114.6C14.3934 114.608 14.5105 114.629 14.6238 114.661C15.2413 118.786 17.1732 120.725 21.7791 121.839C22.5949 122.153 23.4069 122.729 24.2246 122.737C31.9086 122.806 39.5926 122.794 47.2766 122.754C48.1151 122.75 48.9516 122.419 49.7882 122.239C50.6833 121.874 51.5784 121.508 52.4716 121.143C55.0456 119.551 56.4525 117.145 57.2022 114.277C57.4269 113.263 57.8442 112.251 57.848 111.237C57.8952 98.246 57.8858 85.2568 57.8895 72.2656C59.6703 72.4691 61.4511 72.6746 63.2338 72.8781C63.2432 86.4855 63.2432 100.095 63.2848 113.704C63.2885 114.737 63.5907 115.77 63.7531 116.803C63.8626 116.943 63.9212 117.103 63.9268 117.282C63.6795 120.748 63.4321 124.213 63.1847 127.679C61.1584 130.731 58.0727 131.905 54.683 131.936C41.9361 132.046 29.1892 131.958 16.4424 131.994C12.9469 132.004 10.1822 130.773 8.31459 127.724C7.97279 124.143 7.62909 120.554 7.2854 116.962ZM44.8726 123.909C37.5493 123.911 30.2241 123.914 22.9008 123.916C19.3033 125.16 18.4743 126.461 19.0144 129.807C19.428 132.369 21.3447 131.371 22.7913 131.509C31.7726 131.502 40.754 131.506 49.7334 131.464C50.4737 131.46 51.214 131.135 51.9542 130.96C53.5405 126.478 51.7031 123.84 46.9914 123.846C46.2852 123.848 45.5789 123.888 44.8726 123.909Z" fill="#13AD65"/>
<path d="M63.2358 72.8837C61.4551 72.6802 59.6743 72.4748 57.8916 72.2713C57.7084 72.2694 57.5252 72.2675 57.3402 72.2656C57.2023 72.2579 57.0645 72.2503 56.9266 72.2408C56.7491 69.2755 57.2212 66.1675 55.0722 63.634C54.8966 63.0519 54.906 62.2264 54.5151 61.9278C50.844 59.1165 46.3647 59.5559 42.195 59.3448C36.864 59.0747 31.4914 59.5635 26.1396 59.7899C24.0982 59.8774 22.0398 60.0162 20.04 60.3966C19.3054 60.5355 18.7124 61.439 18.0553 61.9925C17.4812 62.5308 16.9052 63.069 16.3311 63.6073C13.6496 62.8864 10.968 62.1656 8.28643 61.4447C8.07493 61.245 7.86531 61.0452 7.65381 60.8474C7.66703 59.419 7.67836 57.9924 7.69158 56.564C26.3643 56.5449 45.039 56.5259 63.7117 56.5088C63.7249 56.8968 63.7382 57.2848 63.7495 57.6729C63.6022 58.4394 63.3322 59.2059 63.3265 59.9763C63.2906 64.2217 63.3208 68.4671 63.3265 72.7144C63.3284 72.7106 63.2358 72.8837 63.2358 72.8837Z" fill="#129356"/>
<path d="M21.7717 11.3783C22.5007 9.71969 23.2523 8.39014 22.5403 6.14759C22.0493 4.60121 24.0643 2.22172 25.0519 0.260682C25.1652 0.036237 26.0887 -0.096908 26.2643 0.0856909C27.9053 1.81467 31.0269 1.81467 31.5708 4.92456C31.7351 5.86609 32.9229 6.62501 34.1541 7.15189C34.2089 7.99451 34.2637 8.83712 34.3675 10.4558C34.9473 9.44008 35.1588 9.07298 35.3703 8.70398C35.5893 10.412 35.1909 12.7744 36.1521 13.6931C38.2464 15.696 37.0264 16.94 35.9066 18.338C37.2927 20.6585 35.9085 23.5459 33.1249 24.4722C32.5641 24.8374 32.0032 25.2026 31.4442 25.5678C29.2442 24.6243 26.185 25.0295 25.4938 21.7199C24.391 20.4987 23.29 19.2776 22.1872 18.0584C22.7896 17.4973 23.392 16.9361 23.7621 16.5919C22.9954 14.5871 22.3836 12.9836 21.7717 11.3783ZM27.0197 9.32976C28.1943 12.4891 29.2291 15.2756 30.2659 18.0603C30.4339 14.8971 30.0223 11.85 29.4841 8.82761C29.4293 8.52138 28.6324 8.20944 28.1584 8.1714C27.8789 8.15048 27.5201 8.6336 27.2652 8.94554C27.0064 9.26319 26.8289 9.64741 27.0197 9.32976ZM32.2676 22.3875C32.1052 22.4293 31.9447 22.4693 31.7823 22.5111C31.9145 22.9144 32.0448 23.3176 32.177 23.7208C32.2846 23.6942 32.3903 23.6657 32.498 23.639C32.4224 23.2225 32.345 22.804 32.2676 22.3875Z" fill="#638B3C"/>
<path d="M33.1248 24.4741C35.9083 23.5459 37.2925 20.6585 35.9064 18.3399C37.0262 16.9419 38.2462 15.6979 36.1519 13.695C35.1907 12.7744 35.5873 10.4139 35.3701 8.70588C35.9631 7.11575 38.5729 4.39769 39.7871 3.72626C40.3839 3.3953 40.5991 2.41003 41.1808 1.99537C42.0551 1.3734 43.2222 0.468011 44.0323 0.663924C44.7367 0.833209 45.2012 2.32634 45.6167 3.3002C46.0605 4.34063 46.3116 5.46475 46.6742 6.54133C46.7214 6.68208 47.0594 6.82664 47.0406 6.87419C46.3173 8.60317 46.525 10.2884 46.6648 12.141C46.8196 14.182 45.6866 16.3161 45.1616 18.4217C45.1181 18.5948 45.4373 18.8591 45.5884 19.0836C46.0133 20.6623 45.2541 21.5639 43.8 21.6514C42.3762 21.737 42.5065 22.4122 42.8237 23.3499C40.2139 26.2829 38.1914 26.5169 33.1248 24.4741ZM39.5322 9.79958C39.4831 9.74632 39.4359 9.69496 39.3868 9.6417C39.4415 9.68926 39.4963 9.73491 39.5511 9.78246C39.8324 10.3169 40.4651 11.2033 40.3404 11.3307C39.0941 12.5918 39.553 14.3436 38.943 15.774C38.2575 17.3793 37.7665 19.0703 37.1905 20.7251C38.3954 20.2895 39.2886 19.6599 39.5397 18.8344C40.246 16.5082 40.669 14.0964 41.2469 11.7283C41.3828 11.171 41.6944 10.6574 41.9248 10.1248C41.1279 10.0164 40.331 9.908 39.5322 9.79958Z" fill="#4C6C33"/>
<path d="M21.7717 11.3784C22.3835 12.9819 22.9954 14.5872 23.7602 16.5901C23.3919 16.9344 22.7876 17.4955 22.1852 18.0566C20.4951 16.8716 19.0788 14.9696 16.7579 15.8921C17.0865 16.6605 17.4491 17.505 17.6964 18.0813C19.6736 19.1218 21.5658 20.1166 23.458 21.1113C23.3409 21.3149 23.2258 21.5165 23.1087 21.72C23.9037 21.72 24.6968 21.72 25.4919 21.72C26.183 25.0315 29.2423 24.6245 31.4423 25.5679C31.4555 26.2469 31.4687 26.926 31.4819 27.605C31.3082 27.6621 31.1326 27.721 30.9589 27.7781C29.6993 28.1338 28.3981 28.3868 27.1858 28.8661C25.2218 29.644 23.8622 29.4729 23.7186 26.9964C19.4602 27.8732 19.4602 27.8732 19.3677 25.5907C18.0496 24.4114 17.1488 23.605 16.248 22.7985C14.1575 21.6363 14.1575 21.6363 13.4871 19.1104C13.3493 19.1047 13.2228 19.0628 13.1095 18.9848L13.1283 19.0172C12.0482 16.9002 10.8112 14.8402 9.99355 12.6224C9.80282 12.105 10.9019 10.5472 11.6403 10.3494C13.3984 9.87961 15.3227 9.6818 17.1224 9.88532C18.0269 9.98803 18.8087 11.2054 19.7794 12.0309C20.31 11.8578 21.0408 11.6181 21.7717 11.3784Z" fill="#4C6C33"/>
<path d="M63.1868 127.684C63.4342 124.219 63.6815 120.753 63.9289 117.288C67.0127 115.878 68.2798 116.641 68.3308 119.992C68.3686 122.433 68.2591 124.877 68.3422 127.317C68.4007 129.046 67.9947 130.608 66.1686 130.781C64.2518 130.963 63.3492 129.537 63.1868 127.684Z" fill="#323232"/>
<path d="M7.28544 116.963C7.62913 120.552 7.97283 124.141 8.31652 127.73C8.19 129.609 7.30055 130.949 5.33281 130.737C3.39151 130.528 3.18567 128.904 3.22155 127.239C3.27442 124.797 3.21022 122.355 3.24799 119.913C3.29709 116.837 4.20353 116.192 7.28544 116.963Z" fill="#323232"/>
<path d="M7.65565 60.8438C7.86715 61.0435 8.07677 61.2413 8.28827 61.441C8.28449 78.8868 8.29016 96.3326 8.2505 113.778C8.24861 114.785 7.85771 115.791 7.64998 116.799C7.60466 104.272 7.54045 91.7448 7.52535 79.2178C7.51779 73.0931 7.60844 66.9684 7.65565 60.8438Z" fill="#11A255"/>
<path d="M63.7532 116.809C63.5908 115.776 63.2886 114.743 63.2849 113.71C63.2433 100.101 63.2452 86.4934 63.2339 72.884L63.3264 72.7109L63.5417 72.7452L63.7589 72.7205C63.7589 87.4159 63.757 102.111 63.7532 116.809Z" fill="#11A255"/>
<path d="M69.2165 46.0417C67.4319 44.8434 65.6474 43.6451 63.8628 42.4449C63.8647 35.7211 63.8685 28.9973 63.8703 22.2734C63.9931 25.486 64.1196 28.6986 64.2348 31.9131C64.2613 32.6321 64.3122 33.3606 64.2273 34.0701C63.623 39.0269 64.2726 43.4378 69.2165 46.0417Z" fill="#7FC476"/>
<path d="M13.1264 19.5308C10.3561 20.5313 9.29099 22.4448 9.40241 25.4539C9.57803 30.1482 9.41751 34.8577 9.33442 39.5596C9.31743 40.5012 9.00395 41.437 8.82832 42.3766C8.81511 36.6 8.79622 30.8253 8.79056 25.0487C8.78678 20.6359 9.1588 20.1281 13.132 19.0192L13.1132 18.9868C13.0811 19.0477 13.0131 19.1143 13.0206 19.1694C13.0357 19.293 13.0886 19.411 13.1264 19.5308Z" fill="#11A255"/>
<path d="M63.8703 22.2733C63.8666 28.9971 63.8647 35.721 63.8628 42.4448C63.6645 41.5242 63.3076 40.6036 63.2944 39.6792C63.2339 35.2854 63.317 30.8897 63.2453 26.4959C63.2132 24.455 62.9469 22.4179 62.7864 20.377C63.1471 21.0103 63.5078 21.6418 63.8703 22.2733Z" fill="#11A255"/>
<path d="M63.7608 72.72L63.5436 72.7448C63.5436 72.7448 63.3283 72.7124 63.3283 72.7105C63.3227 68.4632 63.2924 64.2178 63.3283 59.9724C63.334 59.2039 63.604 58.4374 63.7513 57.6689C63.7551 62.6866 63.757 67.7024 63.7608 72.72Z" fill="#4C6C33"/>
<path d="M31.4838 27.605C31.4706 26.926 31.4574 26.2469 31.4441 25.5679C32.005 25.2027 32.564 24.8375 33.1248 24.4723C38.1915 26.517 40.214 26.2831 42.8257 23.3463C46.7763 23.3596 50.7269 23.3425 54.6774 23.3919C58.594 23.4414 60.0122 24.9098 60.0273 28.8433C60.0387 31.5575 60.0122 34.2718 60.0255 36.9841C60.0406 40.0959 59.2965 43.4436 62.9997 45.4579C62.86 45.6937 62.7221 45.9296 62.5824 46.1674C58.8112 46.1674 55.0381 46.1674 51.2669 46.1674C52.9061 41.0184 53.9844 35.6089 57.9463 31.5366L57.9671 31.5309C58.2315 30.5704 58.8546 29.5147 58.6356 28.6835C58.4807 28.0958 57.2155 27.7306 56.3865 27.4243C55.7689 27.1961 54.7719 27.4719 54.4395 27.0896C53.2819 25.7505 51.909 25.6687 51.0857 26.9222C50.487 27.8333 50.7722 29.3568 50.7382 30.6103C50.7136 31.5062 51.0592 32.4819 50.8118 33.2884C50.2887 34.9965 49.5334 36.6418 48.7874 38.2719C47.6601 40.7388 47.5203 43.9248 44.1249 44.8055C43.8096 44.8873 43.6792 45.6975 43.464 46.1712C39.9836 46.3366 36.5032 46.5002 33.021 46.6657C34.8074 45.9125 36.5939 45.1612 38.5748 44.3261C38.5484 44.0256 38.4747 43.2248 38.403 42.4222C38.2614 41.3019 38.1178 40.1834 37.9762 39.0631C39.368 38.2604 40.7597 37.4597 42.7237 36.3279C40.5879 35.3864 39.0847 34.7169 37.574 34.0626C35.8555 33.3151 34.4807 33.6802 33.5309 35.3674C32.5885 35.1582 31.5537 35.1315 30.7228 34.7036C28.8287 33.7316 27.3972 34.3251 26.0678 35.706C25.8582 36.1644 25.4408 36.6418 25.4767 37.0812C25.5919 38.5134 26.0867 39.94 26.0319 41.3532C25.9696 42.9395 25.4673 44.5087 25.1576 46.0856C19.8813 46.0856 14.6069 46.0856 9.3269 46.0856C9.33823 45.8649 9.28913 45.591 9.36467 45.5492C12.9092 43.6129 14.2349 40.7065 13.6514 36.657C13.3323 34.443 13.7005 32.1377 13.5683 29.8856C13.404 27.0782 13.6363 24.5085 16.2442 22.8042C17.145 23.6107 18.0458 24.4172 19.3639 25.5964C19.4564 27.8789 19.4564 27.8789 23.7148 27.0021C23.8583 29.4786 25.2161 29.6498 27.182 28.8718C28.3943 28.3925 29.6936 28.1376 30.955 27.7819C30.8059 28.9688 30.6548 30.1557 30.481 31.5271C33.6612 30.5494 36.1407 29.7867 38.979 28.9156C36.3465 26.4733 33.9255 26.9564 31.4838 27.605Z" fill="#088952"/>
<path d="M43.4678 46.1674C43.6831 45.6956 43.8134 44.8835 44.1287 44.8017C47.5241 43.921 47.6639 40.735 48.7912 38.2681C49.5372 36.6361 50.2925 34.9927 50.8156 33.2846C51.063 32.4782 50.7174 31.5024 50.742 30.6065C50.776 29.353 50.4908 27.8295 51.0895 26.9184C51.9128 25.6649 53.2857 25.7486 54.4433 27.0858C54.7757 27.47 55.7709 27.1923 56.3903 27.4205C57.2174 27.7268 58.4845 28.092 58.6394 28.6797C58.8584 29.5109 58.2353 30.5685 57.969 31.5271C57.9161 31.1144 57.8651 30.7035 57.8406 30.5076C52.7569 31.3559 53.5482 36.1206 51.9959 39.3617C52.8098 38.1197 53.501 36.7882 53.975 35.3826C54.6529 33.3702 55.8086 31.9627 57.9501 31.5347C53.9863 35.6071 52.908 41.0166 51.2707 46.1655C48.6685 46.1674 46.0681 46.1674 43.4678 46.1674Z" fill="#FCE380"/>
<path d="M25.165 46.0818C25.4747 44.5049 25.9771 42.9357 26.0394 41.3494C26.0941 39.9362 25.5994 38.5096 25.4842 37.0773C25.4483 36.638 25.8656 36.1624 26.0753 35.7021C29.2308 35.8886 31.2439 38.2718 33.7328 39.7402C34.2786 40.0636 34.8055 40.4231 35.3569 40.735C36.3672 41.3076 37.3907 41.8592 38.4086 42.4184C38.4803 43.221 38.554 44.0218 38.5804 44.3223C36.5995 45.1574 34.813 45.9106 33.0266 46.6619C30.4054 46.4679 27.7843 46.2758 25.165 46.0818Z" fill="#FEFEFE"/>
<path d="M13.1264 19.5308C13.0886 19.411 13.0357 19.293 13.0206 19.1694C13.0131 19.1124 13.0792 19.0477 13.1131 18.9868C13.2283 19.0648 13.353 19.1066 13.4908 19.1124C13.3681 19.2512 13.2472 19.392 13.1264 19.5308Z" fill="#FEFEFE"/>
<path d="M55.0721 63.6321C57.2212 66.1676 56.7491 69.2736 56.9266 72.2409C56.9322 72.4292 56.9379 72.6156 56.9436 72.8039C56.9455 86.0309 56.9474 99.2579 56.9474 112.485C57.0323 112.926 57.1154 113.367 57.2004 113.807C57.0833 113.967 57.0852 114.126 57.2023 114.286C56.4545 117.153 55.0457 119.559 52.4718 121.151C51.5861 121.379 50.7004 121.605 49.8148 121.834C49.6278 121.843 49.4409 121.851 49.2539 121.86C40.095 121.855 30.9362 121.851 21.7773 121.845C17.1714 120.73 15.2396 118.792 14.6221 114.667C14.6315 98.9022 14.641 83.136 14.6504 67.3716C14.6768 67.0102 14.7033 66.6488 14.7316 66.2874C15.2641 65.3934 15.7986 64.5014 16.3311 63.6074C16.9052 63.0691 17.4811 62.5308 18.0552 61.9925C20.2118 61.6102 22.3627 60.935 24.5269 60.8969C32.0296 60.76 39.5398 60.9502 47.0407 60.7942C50.1698 60.7257 52.8098 61.4923 55.0721 63.6321ZM19.0561 115.73C19.2261 115.96 19.396 116.192 19.566 116.422C20.835 116.905 22.0965 117.786 23.373 117.807C31.514 117.934 39.6588 117.887 47.8036 117.849C48.6458 117.845 49.4862 117.529 50.3265 117.36C50.4927 117.337 50.6532 117.291 50.8081 117.227C51.5351 115.895 52.8797 114.568 52.8929 113.229C53.0232 99.3911 52.9401 85.5497 52.9156 71.7102C53.1497 66.9113 52.6342 65.1633 49.7638 65.091C40.2027 64.8513 30.6303 65.0929 21.0616 65.1481C20.4025 65.7149 19.7435 66.2817 19.0844 66.8485C18.8918 67.6169 18.5311 68.3854 18.5311 69.1557C18.5179 83.7636 18.5481 98.3696 18.5689 112.978C18.5708 113.36 18.5727 113.744 18.5745 114.126C18.7181 114.554 18.8616 114.984 19.0032 115.412C18.9541 115.528 18.9711 115.635 19.0561 115.73Z" fill="#8ECFB0"/>
<path d="M22.7913 131.51C21.3447 131.371 19.4261 132.369 19.0144 129.807C18.4743 126.462 19.3034 125.161 22.9008 123.917C23.2011 124.082 23.4994 124.388 23.7997 124.39C30.5244 124.417 37.2491 124.417 43.9719 124.388C44.2721 124.386 44.5724 124.076 44.8726 123.909C45.5789 123.888 46.2852 123.848 46.9915 123.846C51.7031 123.84 53.5424 126.477 51.9542 130.96C43.1655 130.962 34.3749 130.95 25.5861 130.992C24.6533 130.998 23.7223 131.329 22.7913 131.51Z" fill="#088952"/>
<path d="M56.9493 112.483C56.9474 99.256 56.9456 86.029 56.9456 72.802C57.0777 72.6232 57.2099 72.4444 57.3421 72.2656C57.5253 72.2675 57.7085 72.2694 57.8935 72.2713C57.8898 85.2625 57.9011 98.2517 57.852 111.243C57.8482 112.257 57.4309 113.269 57.2062 114.282C57.0872 114.126 57.0872 113.967 57.2043 113.805C57.1174 113.364 57.0324 112.922 56.9493 112.483Z" fill="#11A255"/>
<path d="M21.7793 121.843C30.9382 121.849 40.097 121.853 49.2559 121.858C49.4353 121.99 49.6147 122.121 49.796 122.252L49.7903 122.245C48.9537 122.423 48.1172 122.754 47.2787 122.76C39.5947 122.8 31.9107 122.811 24.2267 122.743C23.409 122.733 22.5951 122.155 21.7793 121.843Z" fill="#11A255"/>
<path d="M14.7336 66.2856C14.7071 66.647 14.6807 67.0084 14.6543 67.3698C14.5145 68.0565 14.252 68.745 14.252 69.4336C14.2426 84.4904 14.2634 99.5472 14.2785 114.604C14.0726 113.778 13.6893 112.953 13.6874 112.127C13.6515 97.7802 13.6421 83.4309 13.7082 69.0836C13.7101 68.1478 14.3748 67.2177 14.7336 66.2856Z" fill="#11A255"/>
<path d="M14.2764 114.604C14.2613 99.547 14.2405 84.4902 14.2499 69.4334C14.2499 68.7448 14.5124 68.0582 14.6522 67.3696C14.6427 83.1359 14.6333 98.9003 14.6238 114.665C14.5105 114.63 14.3953 114.611 14.2764 114.604Z" fill="#7FC476"/>
<path d="M22.7913 131.51C23.7223 131.329 24.6532 130.996 25.5861 130.992C34.3749 130.949 43.1655 130.962 51.9542 130.96C51.214 131.135 50.4756 131.46 49.7334 131.464C40.7521 131.508 31.7707 131.502 22.7913 131.51Z" fill="#4C6C33"/>
<path d="M44.8727 123.909C44.5724 124.076 44.2722 124.386 43.9719 124.388C37.2472 124.417 30.5226 124.417 23.7998 124.39C23.4995 124.388 23.1993 124.082 22.9009 123.916C30.2242 123.914 37.5475 123.912 44.8727 123.909Z" fill="#4C6C33"/>
<path d="M49.8167 121.832C50.7024 121.604 51.5881 121.377 52.4737 121.149C51.5786 121.514 50.6835 121.879 49.7903 122.245L49.7959 122.252C49.8016 122.111 49.8092 121.971 49.8167 121.832Z" fill="#11A255"/>
<path d="M55.0722 63.6321C52.8098 61.4922 50.1698 60.7257 47.0426 60.7923C39.5399 60.9483 32.0315 60.758 24.5288 60.895C22.3665 60.9349 20.2137 61.6083 18.0571 61.9906C18.7143 61.4371 19.3073 60.5336 20.0419 60.3947C22.0417 60.0143 24.1001 59.8736 26.1415 59.788C31.4933 59.5616 36.8658 59.0728 42.1969 59.3429C46.3665 59.554 50.8459 59.1147 54.517 61.9259C54.906 62.2245 54.8965 63.05 55.0722 63.6321Z" fill="#088952"/>
<path d="M57.3401 72.2659C57.2079 72.4447 57.0757 72.6235 56.9435 72.8023C56.9378 72.614 56.9322 72.4276 56.9265 72.2393C57.0644 72.2488 57.2022 72.2583 57.3401 72.2659Z" fill="#13AD65"/>
<path d="M27.0196 9.33009C26.8289 9.64773 27.0045 9.26352 27.2651 8.94777C27.52 8.63583 27.8788 8.1508 28.1583 8.17363C28.6323 8.20977 29.4292 8.52361 29.484 8.82984C30.0222 11.8522 30.4339 14.8975 30.2658 18.0625C29.2309 15.2741 28.1942 12.4894 27.0196 9.33009Z" fill="#95275F"/>
<path d="M25.4918 21.72C24.6968 21.72 23.9036 21.72 23.1086 21.72C23.2257 21.5164 23.3409 21.3148 23.4579 21.1113C21.5657 20.1165 19.6735 19.1217 17.6964 18.0813C17.449 17.505 17.0864 16.6605 16.7578 15.892C19.0787 14.9695 20.495 16.8697 22.1851 18.0566C23.288 19.2796 24.3908 20.4988 25.4918 21.72Z" fill="#95275F"/>
<path d="M32.2676 22.3877C32.345 22.8042 32.4224 23.2208 32.4979 23.6374C32.3903 23.664 32.2845 23.6925 32.1769 23.7191C32.0447 23.3159 31.9144 22.9127 31.7822 22.5094C31.9446 22.4695 32.107 22.4295 32.2676 22.3877Z" fill="#95275F"/>
<path d="M39.5324 9.79978C40.3312 9.9082 41.1281 10.0166 41.9269 10.1231C41.6965 10.6557 41.3849 11.1693 41.249 11.7266C40.6692 14.0947 40.2481 16.5065 39.5418 18.8327C39.2907 19.6601 38.3974 20.2878 37.1926 20.7234C37.7686 19.0705 38.2596 17.3795 38.9451 15.7723C39.5569 14.3419 39.0962 12.5882 40.3425 11.329C40.4672 11.2035 39.8345 10.3152 39.5532 9.78076L39.5324 9.79978Z" fill="#95275F"/>
<path d="M39.553 9.78236C39.4982 9.7348 39.4434 9.68915 39.3887 9.6416C39.4378 9.69486 39.485 9.74622 39.5341 9.79947C39.5322 9.79947 39.553 9.78236 39.553 9.78236Z" fill="#95275F"/>
<path d="M31.4839 27.6049C33.9256 26.9563 36.3466 26.4732 38.9847 28.9116C36.1464 29.7847 33.6688 30.5455 30.4868 31.5232C30.6606 30.1518 30.8097 28.9649 30.9608 27.778C31.1345 27.7209 31.3102 27.662 31.4839 27.6049Z" fill="#95275F"/>
<path d="M33.5383 35.3633C34.4863 33.6762 35.8611 33.311 37.5814 34.0585C39.0903 34.7147 40.5935 35.3843 42.7312 36.3239C40.7653 37.4556 39.3755 38.2583 37.9837 39.0591C34.6978 39.0153 33.9009 38.3534 33.5383 35.3633Z" fill="#4C6C33"/>
<path d="M33.5383 35.3636C33.9009 38.3518 34.6978 39.0156 37.9818 39.0594C38.1253 40.1797 38.2669 41.2981 38.4105 42.4184C37.3926 41.8592 36.3691 41.3076 35.3588 40.7351C34.8073 40.4231 34.2805 40.0636 33.7347 39.7403C31.2458 38.2719 29.2327 35.8886 26.0771 35.7022C27.4047 34.3213 28.838 33.7278 30.7321 34.6998C31.5611 35.1278 32.596 35.1544 33.5383 35.3636Z" fill="#E52A29"/>
<path d="M57.9481 31.5383C55.8066 31.9663 54.6509 33.3738 53.973 35.3862C53.499 36.7919 52.8078 38.1233 51.9939 39.3654C53.5462 36.1242 52.7549 31.3596 57.8386 30.5112C57.8631 30.7071 57.9141 31.1199 57.967 31.5307L57.9481 31.5383Z" fill="#E5E9EC"/>
<path d="M52.9155 71.7121C52.94 85.5516 53.0231 99.3911 52.8928 113.231C52.8796 114.57 51.535 115.895 50.808 117.229C49.9487 117.092 49.0895 116.843 48.2284 116.837C42.0381 116.803 35.846 116.818 29.6557 116.818C27.5898 116.818 25.5239 116.818 23.4579 116.818C23.4598 116.999 23.4617 117.179 23.4636 117.36C32.4166 117.36 41.3715 117.36 50.3245 117.36C49.4842 117.531 48.642 117.845 47.8016 117.849C39.6587 117.887 31.5139 117.934 23.371 117.807C22.0964 117.788 20.833 116.905 19.564 116.422C19.394 116.192 19.2241 115.96 19.0541 115.73C18.9691 115.635 18.9502 115.528 19.0012 115.41C18.8577 114.98 18.7142 114.554 18.5726 114.126C18.5707 113.744 18.5688 113.36 18.5669 112.978C18.7293 112.036 19.0277 111.095 19.0314 110.153C19.0654 99.7068 19.0503 89.2606 19.0541 78.8144C19.056 74.8258 19.073 70.8371 19.0843 66.8504C19.7434 66.2836 20.4024 65.7168 21.0615 65.1519C22.8536 65.673 24.6193 66.3349 26.4435 66.6906C35.2587 68.4082 44.0909 70.0459 52.9155 71.7121ZM23.4447 97.1447C24.0074 97.6849 24.5683 98.2232 25.1311 98.7634L25.1046 98.7177C25.2614 99.0981 25.3898 99.7905 25.5786 99.8095C28.281 100.061 30.9927 100.34 33.6988 100.323C34.424 100.319 35.795 99.5147 34.2389 98.3696C34.0237 97.6031 33.8103 96.8347 33.595 96.0681C32.343 95.7391 31.0834 95.4328 29.8389 95.0714C29.1364 94.8679 28.4604 94.575 27.7711 94.322C28.0109 93.6829 28.1091 92.6064 28.5113 92.4751C31.986 91.3358 29.0495 87.3871 31.463 85.8597C32.02 84.9429 32.4487 83.9025 33.1701 83.1436C33.9972 82.2743 35.0868 81.658 36.0632 80.9314C36.6372 82.0385 37.2132 83.1455 37.7873 84.2525C37.4021 84.3133 37.0187 84.3761 35.8724 84.5587C37.9365 85.894 39.6795 86.592 40.788 87.8569C41.9059 89.1313 42.3535 90.9896 43.1882 92.5398C43.4016 92.9373 43.97 93.1409 44.3741 93.4338C44.0644 94.1451 43.8699 95.3644 43.4242 95.4652C42.3629 95.7067 41.1562 95.2274 40.0628 95.3986C39.0393 95.5603 38.0026 96.0624 37.1452 96.6673C36.8034 96.9089 36.6372 98.0748 36.8978 98.383C37.555 99.159 38.5011 99.684 39.3301 100.312C40.2932 98.6911 41.8531 99.0772 43.3147 99.0981C47.8583 99.1609 49.639 96.4581 47.7223 92.2716C46.9084 90.4932 45.8471 88.8288 44.8991 87.1132C44.3061 86.6472 43.7113 86.1831 43.1278 85.7247C43.6999 82.9534 41.245 78.8259 38.0668 77.1825C34.6601 75.8986 34.0293 76.1363 30.7623 79.9405C28.5132 81.2928 27.6672 83.2767 28.2149 85.8882C27.2442 86.2439 26.1697 86.3866 25.454 86.9724C24.7477 87.5526 24.404 88.5835 23.9017 89.4166C24.2303 89.4889 24.5608 89.5592 24.8893 89.6315C24.4475 90.5654 24.0056 91.4994 23.5637 92.4314C21.764 94.4362 21.7376 95.9825 23.4844 97.1866C23.4862 97.1828 23.4447 97.1447 23.4447 97.1447Z" fill="#13AD65"/>
<path d="M52.9155 71.7124C44.0909 70.0461 35.2587 68.4085 26.4435 66.689C24.6193 66.3333 22.8536 65.6714 21.0615 65.1502C30.6283 65.0932 40.2026 64.8516 49.7618 65.0932C52.6341 65.1635 53.1496 66.9134 52.9155 71.7124Z" fill="#129356"/>
<path d="M19.0843 66.8486C19.073 70.8373 19.056 74.8259 19.0541 78.8127C19.0503 89.2588 19.0654 99.705 19.0314 110.151C19.0277 111.093 18.7293 112.034 18.5669 112.976C18.5461 98.3679 18.5159 83.7619 18.5291 69.1539C18.531 68.3874 18.8917 67.619 19.0843 66.8486Z" fill="#11A255"/>
<path d="M50.3266 117.36C41.3736 117.36 32.4187 117.36 23.4656 117.36C23.4637 117.179 23.4618 116.999 23.46 116.818C25.5259 116.818 27.5918 116.818 29.6578 116.818C35.848 116.818 42.0402 116.803 48.2304 116.837C49.0916 116.841 49.9508 117.092 50.81 117.229C50.6533 117.291 50.4928 117.337 50.3266 117.36Z" fill="#11A255"/>
<path d="M56.9492 112.483C57.0342 112.922 57.1192 113.364 57.2023 113.805C57.1173 113.364 57.0323 112.924 56.9492 112.483Z" fill="#13AD65"/>
<path d="M18.5745 114.126C18.718 114.554 18.8596 114.982 19.0031 115.41C18.8615 114.982 18.718 114.554 18.5745 114.126Z" fill="#11A255"/>
<path d="M19.0562 115.73C19.2261 115.96 19.3961 116.19 19.566 116.422C19.3961 116.192 19.2261 115.96 19.0562 115.73Z" fill="#11A255"/>
<path d="M49.8167 121.832C49.8073 121.97 49.7997 122.111 49.796 122.25C49.6166 122.119 49.4371 121.988 49.2559 121.856C49.4447 121.849 49.6317 121.839 49.8167 121.832Z" fill="#13AD65"/>
<path d="M44.9012 87.1094C45.8491 88.825 46.9104 90.4894 47.7244 92.2678C49.6392 96.4562 47.8603 99.1571 43.3168 99.0943C41.8551 99.0734 40.2953 98.6873 39.3322 100.308C38.5013 99.6821 37.5552 99.1552 36.8999 98.3791C36.6393 98.071 36.8055 96.905 37.1473 96.6635C38.0027 96.0586 39.0395 95.5565 40.0649 95.3948C41.1583 95.2217 42.3669 95.701 43.4263 95.4614C43.872 95.3606 44.0684 94.1413 44.3762 93.43C43.6435 91.8646 42.9108 90.3011 42.0402 88.4427C42.9882 88.0014 43.9437 87.5545 44.9012 87.1094Z" fill="#E5E9EC"/>
<path d="M30.7642 79.9386C34.0312 76.1344 34.6619 75.8967 38.0686 77.1806C39.3773 79.2158 40.6841 81.251 41.9928 83.2843C42.2458 83.1474 42.4989 83.0123 42.7519 82.8754C42.4082 84.2201 42.0664 85.5668 41.5773 87.4765C40.0987 86.2173 38.943 85.232 37.7873 84.2487C37.2132 83.1417 36.6372 82.0346 36.0631 80.9276C35.0868 81.6542 33.9991 82.2705 33.1701 83.1398C32.4487 83.8968 32.02 84.9391 31.4629 85.8559C30.4979 85.4222 29.5348 84.9905 28.6133 84.5758C29.4499 82.7746 30.107 81.3575 30.7642 79.9386Z" fill="#E5E9EC"/>
<path d="M33.595 96.068C33.8103 96.8346 34.0237 97.603 34.239 98.3695C33.8103 98.7176 33.3684 99.3834 32.9586 99.3643C30.3356 99.2331 27.7202 98.9516 25.1028 98.7176L25.1292 98.7633C24.5665 98.2231 24.0056 97.6848 23.4429 97.1446L23.4844 97.1827C23.5109 95.5982 23.5373 94.0138 23.5637 92.4275C24.0056 91.4936 24.4475 90.5596 24.8894 89.6276C25.0084 86.7897 27.6012 87.7769 29.1119 86.6147C29.2592 88.2201 29.3801 89.5249 29.4934 90.7689C27.0403 90.9496 26.8477 92.9601 26.6438 94.5388C26.385 96.5226 28.1394 96.1137 29.3083 96.1441C30.7379 96.1822 32.1674 96.0985 33.595 96.068Z" fill="#FEFEFE"/>
<path d="M33.595 96.068C32.1673 96.0984 30.7359 96.1821 29.3101 96.1441C28.1412 96.1136 26.3868 96.5226 26.6456 94.5387C26.8514 92.96 27.0421 90.9495 29.4952 90.7688C29.38 89.5249 29.261 88.2181 29.1137 86.6147C27.603 87.7769 25.0102 86.7897 24.8912 89.6276C24.5626 89.5553 24.2322 89.4849 23.9036 89.4126C24.4059 88.5795 24.7496 87.5486 25.4559 86.9685C26.1716 86.3807 27.248 86.24 28.2167 85.8843C27.6691 83.2728 28.5132 81.2889 30.7642 79.9365C30.107 81.3555 29.448 82.7744 28.6133 84.5757C29.5349 84.9903 30.4998 85.4221 31.4629 85.8558C29.0495 87.3831 31.986 91.3318 28.5113 92.4712C28.1072 92.6043 28.009 93.679 27.7711 94.3181C28.4603 94.5711 29.1364 94.864 29.8389 95.0675C31.0834 95.4308 32.3429 95.7389 33.595 96.068Z" fill="#11A255"/>
<path d="M37.7874 84.2488C38.9431 85.2321 40.0988 86.2174 41.5774 87.4766C42.0646 85.565 42.4083 84.2202 42.752 82.8755C42.499 83.0124 42.2459 83.1475 41.9929 83.2844C40.6842 81.2492 39.3774 79.214 38.0687 77.1807C41.247 78.8241 43.7019 82.9516 43.1297 85.7229C43.7151 86.1813 44.3081 86.6454 44.9011 87.1114C43.9436 87.5565 42.9862 88.0016 42.0363 88.4447C42.9069 90.3031 43.6396 91.8685 44.3723 93.432C43.9663 93.139 43.3998 92.9355 43.1864 92.538C42.3517 90.9878 41.9041 89.1295 40.7862 87.8551C39.6777 86.5921 37.9347 85.8922 35.8706 84.5569C37.0188 84.3724 37.4021 84.3115 37.7874 84.2488Z" fill="#11A255"/>
<path d="M25.1028 98.7177C27.7201 98.9498 30.3356 99.2332 32.9586 99.3644C33.3684 99.3853 33.8122 98.7196 34.239 98.3696C35.7932 99.5147 34.4241 100.317 33.6989 100.323C30.9909 100.34 28.281 100.061 25.5787 99.8095C25.3879 99.7905 25.2595 99.0962 25.1028 98.7177Z" fill="#11A255"/>
<path d="M23.5657 92.4277C23.5392 94.0122 23.5128 95.5966 23.4864 97.1829C21.7396 95.9789 21.766 94.4325 23.5657 92.4277Z" fill="#11A255"/>
<path d="M23.4448 97.1445C24.0057 97.6847 24.5684 98.2249 25.1312 98.7632C24.5684 98.223 24.0057 97.6828 23.4448 97.1445Z" fill="#11A255"/>
</g>
<defs>
<clipPath id="clip0_177_471">
<rect width="72" height="132" fill="white"/>
</clipPath>
</defs>
</svg>
