<svg width="35" height="34" viewBox="0 0 35 34" fill="none" xmlns="http://www.w3.org/2000/svg">
<rect width="35" height="34" rx="17" fill="#6F3AFA" fill-opacity="0.14"/>
<path d="M27.4884 14.65L26.4884 14.1L17.4884 9.10004H17.3784C17.3171 9.07412 17.2535 9.05403 17.1884 9.04004H16.9984H16.8184C16.7501 9.05404 16.6832 9.07412 16.6184 9.10004H16.5084L7.50841 14.1C7.35452 14.1873 7.22651 14.3137 7.13745 14.4666C7.04839 14.6194 7.00146 14.7931 7.00146 14.97C7.00146 15.1469 7.04839 15.3207 7.13745 15.4735C7.22651 15.6263 7.35452 15.7528 7.50841 15.84L9.99841 17.22V21.96C9.99841 22.7557 10.3145 23.5188 10.8771 24.0814C11.4397 24.644 12.2028 24.96 12.9984 24.96H20.9984C21.7941 24.96 22.5571 24.644 23.1197 24.0814C23.6823 23.5188 23.9984 22.7557 23.9984 21.96V17.22L25.9984 16.1V18.96C25.9984 19.2253 26.1038 19.4796 26.2913 19.6671C26.4788 19.8547 26.7332 19.96 26.9984 19.96C27.2636 19.96 27.518 19.8547 27.7055 19.6671C27.8931 19.4796 27.9984 19.2253 27.9984 18.96V15.52C27.9981 15.3428 27.9507 15.1689 27.8611 15.016C27.7715 14.8632 27.6429 14.7369 27.4884 14.65ZM21.9984 21.96C21.9984 22.2253 21.8931 22.4796 21.7055 22.6671C21.518 22.8547 21.2636 22.96 20.9984 22.96H12.9984C12.7332 22.96 12.4788 22.8547 12.2913 22.6671C12.1038 22.4796 11.9984 22.2253 11.9984 21.96V18.33L16.5084 20.83L16.6584 20.89H16.7484C16.8314 20.9005 16.9154 20.9005 16.9984 20.89C17.0814 20.9005 17.1654 20.9005 17.2484 20.89H17.3384C17.3915 20.8788 17.4423 20.8585 17.4884 20.83L21.9984 18.33V21.96ZM16.9984 18.82L10.0584 14.96L16.9984 11.1L23.9384 14.96L16.9984 18.82Z" fill="#6F3AFA"/>
</svg>
