<svg width="74" height="125" viewBox="0 0 74 125" fill="none" xmlns="http://www.w3.org/2000/svg">
<g clip-path="url(#clip0_177_527)">
<path d="M8.05318 47.5514C7.40782 47.5573 6.75858 47.6002 6.11517 47.5592C3.73202 47.409 1.23225 47.526 0.427499 44.4094C-0.538589 40.6745 0.0387312 37.8191 3.13915 36.6041C8.40696 34.5386 9.85901 31.0124 9.23115 25.6899C8.7899 21.9452 9.10868 18.105 9.18255 14.3096C9.25642 10.5903 10.518 9.39081 14.2579 9.32645C18.2214 9.25819 22.1849 9.22503 26.1484 9.17822C26.4847 9.55464 26.8209 9.93301 27.1572 10.3094C27.5499 11.3568 27.9445 12.4022 28.3371 13.4495C25.2873 13.5041 22.2374 13.5392 19.1875 13.6153C15.259 13.7128 13.8517 15.1404 13.8303 19.0256C13.8167 21.4362 13.7156 23.8546 13.8517 26.2575C14.0771 30.2245 14.1238 34.0452 9.95425 36.2628C9.87067 36.3076 9.91149 36.5885 9.87261 36.959C13.6456 36.959 17.4011 36.959 21.1547 36.959C25.3728 36.9727 29.5909 36.9922 33.811 36.998C39.038 37.0058 39.038 37 40.6008 32.0461C40.7077 31.147 40.8127 30.2479 40.9196 29.3488C41.1159 27.9972 41.3123 26.6475 41.5086 25.2959C41.5086 29.1342 41.5086 32.9725 41.5086 37.0117C44.1891 37.0117 46.477 37.1053 48.7474 36.9532C49.4025 36.9103 50.5533 36.1574 50.5513 35.7303C50.5494 32.0812 50.3336 28.4301 50.182 24.781C50.0868 21.4596 49.9915 18.1362 49.8943 14.8147C49.9701 14.3974 50.2617 13.8162 50.0887 13.586C48.277 11.1676 45.8667 11.8678 43.4349 12.2871C41.8196 12.566 41.6485 13.3442 42.1287 14.6392C41.9246 17.8222 41.7205 21.0071 41.5164 24.1901C41.1781 21.2451 40.7505 18.3039 40.5308 15.3491C40.3831 13.3695 39.3781 13.4358 38.5384 13.6874C37.9242 14.686 37.5781 15.2477 37.2321 15.8094C36.4099 13.6465 35.5877 11.4835 34.7635 9.3206C43.3377 9.31865 51.912 9.3089 60.4863 9.32255C64.9144 9.3284 66.0146 10.4499 66.0185 14.8967C66.0243 20.1704 65.9368 25.4461 66.0923 30.716C66.1234 31.7594 66.9223 32.9101 67.6513 33.7663C68.4755 34.7317 69.5329 35.5801 70.6448 36.1964C74.2817 38.2112 74.3264 41.6028 73.6772 44.8931C73.0999 47.8205 70.2793 47.4246 68.0381 47.5475C66.9087 47.6099 65.4547 47.1184 65.8882 49.1897C65.3537 47.4948 64.0299 47.5592 62.5954 47.5611C44.4166 47.5787 26.2339 47.5592 8.05318 47.5514ZM64.5353 36.9688C64.6986 36.7972 64.8619 36.6255 65.0232 36.4539C60.564 33.5479 61.6137 29.2083 61.5787 25.1555C61.5573 22.6571 61.7226 20.1431 61.501 17.6642C61.4077 16.6091 60.7196 14.9318 59.9867 14.7348C57.5608 14.0892 54.9949 13.9371 52.4699 13.7655C52.2133 13.7479 51.6263 14.8693 51.6204 15.4642C51.5582 22.0349 51.5505 28.6076 51.634 35.1784C51.6418 35.7791 52.3708 36.8732 52.7945 36.8869C56.7055 37.0234 60.6224 36.9688 64.5353 36.9688Z" fill="#E52A29"/>
<path d="M65.348 120.151C63.2234 123.865 59.9266 125.047 55.8076 124.998C44.994 124.867 34.1785 124.912 23.3611 124.889C24.3271 124.747 25.2952 124.487 26.2632 124.483C34.8783 124.44 43.4915 124.442 52.1065 124.432C54.8007 123.892 55.1331 122.523 53.3195 119.449C53.2048 117.175 51.364 116.736 49.7992 116.713C41.3066 116.59 32.8081 116.518 24.3233 116.793C22.8382 116.842 21.0071 118.328 20.0565 119.666C18.8786 121.324 19.4209 123.34 20.9254 124.887C18.2818 124.706 15.5118 124.942 13.0354 124.196C11.3948 123.703 10.1721 121.805 8.76283 120.538C8.41488 116.894 8.06499 113.249 7.71704 109.606C7.72482 91.612 7.73065 73.618 7.74425 55.626C7.74425 54.6079 7.80451 53.5899 7.83756 52.5718C10.8175 53.3656 13.7993 54.1613 16.7792 54.9551C16.1844 56.8723 15.092 58.7837 15.0745 60.7067C14.9326 75.7459 14.9676 90.785 15.0123 105.824C15.0278 111.219 18.3226 114.443 23.7129 114.462C32.0384 114.494 40.3794 114.178 48.6873 114.558C55.969 114.891 58.9372 109.992 58.8419 104.389C58.6106 90.8416 58.8245 77.2866 58.8575 63.7336C61.2115 63.9189 63.5674 64.1023 65.9214 64.2875C65.9486 79.4769 65.9778 94.6682 66.005 109.858C65.7853 113.288 65.5676 116.721 65.348 120.151Z" fill="#E52A29"/>
<path d="M16.7791 54.9533C13.7992 54.1596 10.8173 53.3638 7.8374 52.57C7.90932 50.8966 7.98125 49.2252 8.05317 47.5518C26.2358 47.5615 44.4185 47.581 62.5992 47.5576C64.0338 47.5557 65.3575 47.4913 65.8921 49.1862C65.9018 54.22 65.9115 59.2539 65.9212 64.2877C63.5673 64.1024 61.2113 63.9191 58.8573 63.7338C58.8204 63.1799 58.7174 62.6202 58.7601 62.0741C59.2792 55.4585 54.7228 51.6807 48.6464 51.9479C40.7174 52.297 32.7594 52.1195 24.8149 51.9908C21.6678 51.9401 19.0009 52.7182 16.7791 54.9533Z" fill="#C32327"/>
<path d="M20.9235 124.885C19.419 123.338 18.8747 121.322 20.0546 119.664C21.0052 118.326 22.8363 116.84 24.3213 116.791C32.8062 116.518 41.3066 116.588 49.7973 116.711C51.3621 116.734 53.2029 117.173 53.3176 119.447C44.652 119.449 35.9883 119.434 27.3246 119.459C24.0142 119.469 23.2814 120.567 24.4341 123.906C32.6546 123.906 40.9392 123.888 49.2258 123.929C50.1861 123.933 51.1463 124.255 52.1066 124.431C43.4915 124.442 34.8783 124.438 26.2632 124.481C25.2952 124.485 24.3291 124.747 23.3611 124.887C22.5505 124.889 21.738 124.887 20.9235 124.885Z" fill="#C32327"/>
<path d="M28.3391 13.4475C27.9464 12.4001 27.5518 11.3547 27.1572 10.3074C29.1905 9.33806 31.2237 8.36679 33.257 7.39746C33.7604 8.03718 34.2658 8.67884 34.7674 9.31856C35.5877 11.4815 36.4099 13.6444 37.2341 15.8093C37.8775 16.9893 38.3596 18.1244 36.4507 18.5769C36.0542 18.2941 35.3738 17.7109 35.3077 17.7733C34.7304 18.3272 34.2639 18.9962 33.7624 19.632C31.4123 20.7632 31.2024 18.7895 30.5181 17.4203C29.8417 16.0707 29.07 14.7698 28.3391 13.4475Z" fill="#9198A0"/>
<path d="M7.7149 109.602C8.06285 113.245 8.41274 116.891 8.76069 120.534C7.75572 123.767 4.74472 124.94 4.34623 122.878C3.53565 118.685 4.09159 114.219 4.28792 109.873C4.29569 109.733 6.52333 109.692 7.7149 109.602Z" fill="#323232"/>
<path d="M65.3478 120.151C65.5655 116.719 65.7852 113.288 66.0029 109.855C69.1499 108.523 70.4562 109.364 70.4776 112.758C70.4931 115.168 70.3784 117.585 70.5106 119.989C70.6234 122.051 69.9527 123.668 67.8651 123.715C65.7793 123.759 65.27 122.006 65.3478 120.151Z" fill="#323232"/>
<path d="M33.257 7.39561C31.2237 8.36493 29.1904 9.33426 27.1572 10.3055C26.8209 9.92911 26.4846 9.55075 26.1483 9.17433C25.3572 7.30784 24.5661 5.44135 23.7769 3.57682C23.9868 3.55926 24.1967 3.54171 24.4047 3.52416C26.2514 2.83763 28.098 2.15111 30.4267 1.2832C31.2237 3.00341 32.2403 5.19951 33.257 7.39561Z" fill="#9FCBE6"/>
<path d="M24.4049 3.52432C24.195 3.54187 23.985 3.55943 23.777 3.57698C23.6371 2.75198 23.4971 1.92698 23.3572 1.10003C23.6604 1.08443 23.9637 1.07078 24.265 1.05518C24.3116 1.88017 24.3583 2.70127 24.4049 3.52432Z" fill="#E5E9EC"/>
<path d="M26.2438 1.69291C26.2185 1.1312 26.1932 0.571453 26.168 0.00975176C26.4246 0.00585106 26.6792 0.0039007 26.9358 0C26.9358 0.561701 26.9358 1.1234 26.9358 1.68315C26.7045 1.68705 26.4751 1.69096 26.2438 1.69291Z" fill="#E5E9EC"/>
<path d="M36.4507 18.5752C38.3595 18.1228 37.8774 16.9876 37.234 15.8077C37.58 15.246 37.926 14.6823 38.5403 13.6857C39.382 13.4341 40.385 13.3658 40.5327 15.3474C40.7524 18.3022 41.18 21.2414 41.5183 24.1883C41.5727 24.3814 41.6252 24.5726 41.6796 24.7657C41.6232 24.9431 41.5649 25.1206 41.5085 25.2981C41.3122 26.6497 41.1159 27.9993 40.9196 29.3509C40.7893 29.3158 40.6552 29.2846 40.5211 29.2612C36.8122 25.5926 32.2481 24.2059 27.1591 24.2254C26.4477 24.7774 25.7362 25.3293 25.0248 25.8832C23.7341 29.5752 22.4453 33.2672 21.1546 36.9612C17.401 36.9612 13.6455 36.9612 9.87256 36.9612C9.90949 36.5906 9.87061 36.3098 9.9542 36.2649C14.1257 34.0474 14.079 30.2247 13.8516 26.2596C13.7136 23.8568 13.8166 21.4384 13.8302 19.0277C13.8516 15.1426 15.2589 13.715 19.1874 13.6174C22.2373 13.5414 25.2872 13.5063 28.3371 13.4517C29.068 14.774 29.8416 16.0749 30.5161 17.4245C31.2004 18.7917 31.4103 20.7674 33.7604 19.6362C34.6584 19.2793 35.5546 18.9263 36.4507 18.5752Z" fill="#D02429"/>
<path d="M64.5353 36.9687C60.6204 36.9687 56.7055 37.0233 52.7945 36.8907C52.3707 36.877 51.6418 35.7829 51.634 35.1822C51.5504 28.6114 51.5582 22.0387 51.6204 15.468C51.6262 14.8712 52.2133 13.7517 52.4699 13.7692C54.9949 13.9409 57.5608 14.093 59.9867 14.7386C60.7215 14.9336 61.4076 16.6129 61.5009 17.668C61.7225 20.1469 61.5573 22.6609 61.5787 25.1593C61.6137 29.2121 60.5659 33.5517 65.0232 36.4577C64.8618 36.6274 64.6985 36.7971 64.5353 36.9687Z" fill="#D02429"/>
<path d="M21.1567 36.9574C22.4474 33.2654 23.7362 29.5734 25.0269 25.8813C26.858 27.35 28.4831 29.4134 30.5708 30.1487C33.745 31.2643 37.242 31.4594 40.6029 32.0464C39.0401 37.0003 39.0401 37.0042 33.8131 36.9984C29.5949 36.9925 25.3749 36.9711 21.1567 36.9574Z" fill="#FCE380"/>
<path d="M41.5105 25.2961C41.5669 25.1186 41.6252 24.9412 41.6816 24.7637C44.5157 24.7676 47.3498 24.7734 50.1858 24.7793C50.3375 28.4284 50.5532 32.0794 50.5552 35.7286C50.5552 36.1557 49.4044 36.9085 48.7513 36.9514C46.479 37.1035 44.1911 37.0099 41.5124 37.0099C41.5105 32.9727 41.5105 29.1344 41.5105 25.2961Z" fill="#323232"/>
<path d="M50.1859 24.779C47.3518 24.7732 44.5177 24.7693 41.6816 24.7634C41.6272 24.5723 41.5747 24.3792 41.5203 24.1861C41.7244 21.0032 41.9285 17.8182 42.1326 14.6353C44.6887 16.098 47.2701 16.5095 49.8982 14.8108C49.9935 18.1342 50.0887 21.4576 50.1859 24.779Z" fill="#1670AD"/>
<path d="M49.8982 14.8131C47.2702 16.5119 44.6907 16.1004 42.1326 14.6376C41.6544 13.3426 41.8255 12.5644 43.4388 12.2855C45.8686 11.8662 48.281 11.166 50.0926 13.5844C50.2656 13.8146 49.974 14.3938 49.8982 14.8131Z" fill="#E5E9EC"/>
<path d="M40.6009 32.046C37.24 31.459 33.745 31.2639 30.5687 30.1483C28.481 29.413 26.856 27.3515 25.0249 25.8809C25.7363 25.327 26.4478 24.7751 27.1592 24.2231C27.2176 25.1515 26.9046 26.5148 27.3944 26.9361C30.6173 29.7056 34.4486 31.063 38.7115 30.7978C39.3432 30.7588 39.9186 29.7953 40.5192 29.259C40.6534 29.2824 40.7875 29.3136 40.9177 29.3487C40.8147 30.2478 40.7078 31.1469 40.6009 32.046Z" fill="#ECA922"/>
<path d="M16.7791 54.9533C19.0028 52.7202 21.6679 51.9401 24.813 51.9908C32.7555 52.1195 40.7136 52.297 48.6445 51.9479C54.7228 51.6807 59.2792 55.4585 58.7582 62.0741C58.7155 62.6221 58.8204 63.1799 58.8554 63.7338C58.8224 77.2868 58.6086 90.8418 58.8399 104.389C58.9351 109.992 55.9669 114.892 48.6853 114.558C40.3754 114.178 32.0363 114.494 23.7108 114.462C18.3206 114.443 15.0258 111.219 15.0102 105.824C14.9655 90.7852 14.9305 75.7441 15.0724 60.7069C15.0918 58.7819 16.1843 56.8705 16.7791 54.9533ZM22.6164 56.1255C20.1594 56.6306 19.1992 58.2397 19.2011 60.6484C19.2186 75.5803 19.1992 90.5122 19.2342 105.444C19.2439 109.329 20.519 110.511 24.467 110.515C32.5086 110.525 40.5484 110.517 48.59 110.515C53.6401 110.513 54.7073 109.434 54.7131 104.247C54.7248 91.1694 54.7267 78.0923 54.7073 65.0152C54.7053 63.2696 54.5673 61.5241 54.4915 59.7766C54.2505 57.1553 52.5535 56.0553 50.1995 56.0475C41.0052 56.0163 31.8108 56.0904 22.6164 56.1255Z" fill="#F39596"/>
<path d="M52.1066 124.43C51.1463 124.255 50.188 123.933 49.2258 123.929C40.9392 123.888 32.6546 123.906 24.4341 123.906C23.2814 120.569 24.0142 119.469 27.3246 119.459C35.9883 119.434 44.652 119.449 53.3176 119.447C55.1331 122.523 54.8007 123.89 52.1066 124.43Z" fill="#D02429"/>
<path d="M36.4508 18.5753C35.5547 18.9263 34.6605 19.2793 33.7644 19.6304C34.264 18.9946 34.7324 18.3256 35.3078 17.7717C35.3739 17.7093 36.0542 18.2925 36.4508 18.5753Z" fill="#E5E9EC"/>
<path d="M40.5231 29.2592C39.9225 29.7955 39.3471 30.759 38.7154 30.798C34.4525 31.0613 30.6212 29.7058 27.3983 26.9363C26.9085 26.515 27.2214 25.1517 27.1631 24.2233C32.2501 24.2038 36.8143 25.5886 40.5231 29.2592Z" fill="#FEFEFE"/>
<path d="M54.4916 59.7765C54.5674 61.5221 54.7054 63.2677 54.7073 65.0152C54.7248 78.0923 54.7229 91.1694 54.7132 104.247C54.7093 109.434 53.6402 110.513 48.5901 110.515C40.5484 110.519 32.5087 110.525 24.467 110.515C20.5191 110.509 19.2439 109.329 19.2342 105.444C19.1992 90.5121 19.2187 75.5802 19.2012 60.6484C19.1973 58.2397 20.1576 56.6306 22.6165 56.1255C22.8848 56.4434 23.1025 56.9719 23.4251 57.0461C30.1411 58.5693 36.8551 60.1023 43.5983 61.4929C47.0467 62.2047 50.5495 62.6416 54.167 63.2248C54.303 61.7776 54.3983 60.7771 54.4916 59.7765ZM40.7739 92.5542C40.7545 92.2967 40.735 92.0393 40.7156 91.7818C42.0996 91.6316 43.4836 91.3586 44.8696 91.3547C49.2471 91.3391 51.1307 88.6983 49.4046 84.6416C48.559 82.6522 47.3421 80.8208 46.2419 78.8217C45.0951 79.4868 44.2475 79.9763 43.3087 80.5205C44.302 82.2446 45.3225 83.7717 46.067 85.4256C46.3624 86.0829 46.1467 87.6958 45.9912 87.7192C44.3389 87.9669 42.6517 87.9825 40.9741 88.0625C40.9391 87.766 40.9022 87.4715 40.8672 87.1751C39.7923 87.9845 38.7173 88.7919 37.481 89.7223C38.7096 90.7793 39.7417 91.6668 40.7739 92.5542ZM43.0715 78.9193C43.4409 77.3239 43.7499 75.9937 44.059 74.6636C43.8005 74.7982 43.5419 74.9327 43.2815 75.0654C42.5098 73.8113 41.6856 72.5845 40.9741 71.2973C38.935 67.6072 35.7374 67.2405 33.1132 70.562C31.7623 72.2705 30.6932 74.2013 29.4336 76.1283C30.5046 76.8031 31.3366 77.3278 32.2832 77.9246C33.1638 76.5184 33.7955 75.159 34.7538 74.096C35.4867 73.2827 36.6316 72.8439 37.5938 72.2373C38.4413 73.6767 39.2888 75.1141 40.1363 76.5535C39.8933 76.7115 39.6523 76.8694 39.4093 77.0274C40.5348 77.6086 41.6603 78.1918 43.0715 78.9193ZM25.8705 80.0505C27.4275 82.2505 25.2951 83.3388 24.6459 84.7001C23.1608 87.8109 23.8722 90.2918 27.2195 91.1129C29.661 91.7116 32.2852 91.5575 34.9832 91.7487C34.9832 90.4302 34.9832 89.4531 34.9832 88.2595C33.572 88.2595 32.1724 88.4506 30.8526 88.2029C29.6824 87.9825 27.653 87.2746 27.653 86.7811C27.651 84.9536 28.1934 83.0286 30.5551 82.4611C30.4327 81.2382 30.3063 80.0017 30.1567 78.5058C28.5083 79.1006 27.2331 79.5609 25.8705 80.0505Z" fill="#E52A29"/>
<path d="M54.4915 59.7765C54.3982 60.777 54.303 61.7775 54.1669 63.2227C50.5494 62.6396 47.0447 62.2027 43.5982 61.4908C36.8551 60.1002 30.1411 58.5653 23.4251 57.044C23.1024 56.9719 22.8847 56.4414 22.6165 56.1235C31.8108 56.0884 41.0052 56.0142 50.1995 56.0474C52.5535 56.0571 54.2505 57.1571 54.4915 59.7765Z" fill="#C32327"/>
<path d="M40.7738 92.5537C39.7416 91.6663 38.7095 90.7789 37.479 89.7218C38.7153 88.7915 39.7902 87.984 40.8652 87.1746C40.9002 87.4711 40.9371 87.7656 40.9721 88.0621C42.6496 87.9821 44.3369 87.9665 45.9891 87.7188C46.1446 87.6954 46.3604 86.0824 46.0649 85.4252C45.3204 83.7713 44.2999 82.2442 43.3066 80.52C44.2474 79.9759 45.093 79.4864 46.2399 78.8213C47.3401 80.8184 48.5569 82.6498 49.4025 84.6411C51.1286 88.6998 49.2451 91.3386 44.8675 91.3542C43.4835 91.3601 42.0995 91.6312 40.7136 91.7814C40.7349 92.0388 40.7544 92.2963 40.7738 92.5537Z" fill="#FEFEFE"/>
<path d="M43.0716 78.9189C41.6623 78.1914 40.5368 77.6082 39.4094 77.027C39.6524 76.869 39.8934 76.7111 40.1364 76.5531C39.2889 75.1137 38.4413 73.6763 37.5938 72.2369C36.6316 72.8435 35.4867 73.2823 34.7539 74.0956C33.7956 75.1586 33.1638 76.518 32.2833 77.9242C31.3366 77.3274 30.5046 76.8027 29.4336 76.1279C30.6932 74.2009 31.7623 72.2701 33.1133 70.5616C35.7375 67.2421 38.9351 67.6088 40.9742 71.2969C41.6856 72.5841 42.5098 73.8109 43.2815 75.065C43.54 74.9304 43.7986 74.7958 44.059 74.6632C43.75 75.9933 43.4409 77.3235 43.0716 78.9189Z" fill="#FEFEFE"/>
<path d="M25.8704 80.0501C27.2331 79.5605 28.5082 79.1002 30.1547 78.5073C30.3063 80.0032 30.4307 81.2378 30.5531 82.4626C28.1933 83.0302 27.651 84.9552 27.651 86.7827C27.651 87.2761 29.6804 87.9841 30.8506 88.2045C32.1685 88.4522 33.57 88.261 34.9812 88.261C34.9812 89.4547 34.9812 90.4318 34.9812 91.7502C32.2832 91.5591 29.659 91.7132 27.2175 91.1144C23.8702 90.2914 23.1588 87.8125 24.6439 84.7016C25.2951 83.3383 27.4294 82.2501 25.8704 80.0501Z" fill="#FEFEFE"/>
</g>
<defs>
<clipPath id="clip0_177_527">
<rect width="74" height="125" fill="white"/>
</clipPath>
</defs>
</svg>
