<svg width="21" height="21" viewBox="0 0 21 21" fill="none" xmlns="http://www.w3.org/2000/svg">
<path d="M10.0601 0.5C8.08225 0.5 6.14885 1.08649 4.50436 2.1853C2.85987 3.28412 1.57814 4.8459 0.821268 6.67317C0.0643914 8.50043 -0.133642 10.5111 0.25221 12.4509C0.638063 14.3907 1.59047 16.1725 2.989 17.5711C4.38752 18.9696 6.16935 19.922 8.10916 20.3079C10.049 20.6937 12.0596 20.4957 13.8869 19.7388C15.7142 18.9819 17.2759 17.7002 18.3748 16.0557C19.4736 14.4112 20.0601 12.4778 20.0601 10.5C20.0601 9.18678 19.8014 7.88642 19.2989 6.67317C18.7963 5.45991 18.0597 4.35752 17.1311 3.42893C16.2025 2.50035 15.1002 1.76375 13.8869 1.2612C12.6736 0.758658 11.3733 0.5 10.0601 0.5ZM10.0601 2.5C12.1148 2.49918 14.0898 3.29493 15.5701 4.72C14.0421 5.6162 12.4229 6.347 10.7401 6.9C9.90255 5.45683 8.94234 4.08844 7.87006 2.81C8.58202 2.605 9.31918 2.50065 10.0601 2.5ZM5.95006 3.65C6.99775 4.84851 7.93803 6.1368 8.76006 7.5C6.79716 7.9874 4.78257 8.23587 2.76006 8.24H2.40006C2.96727 6.31964 4.234 4.68181 5.95006 3.65ZM4.06006 15.81C2.75882 14.3488 2.04614 12.4566 2.06006 10.5C2.06006 10.4 2.06006 10.3 2.06006 10.21H2.74006C5.10744 10.1888 7.46146 9.85255 9.74006 9.21C10.0601 9.82 10.3601 10.45 10.6501 11.1C9.09155 11.6494 7.64007 12.4648 6.36006 13.51L6.06006 13.75C5.34718 14.3902 4.67895 15.0785 4.06006 15.81ZM10.0601 18.5C8.46615 18.5035 6.90826 18.0261 5.59006 17.13C6.0769 16.5716 6.5979 16.0439 7.15006 15.55L7.47006 15.28C8.65323 14.2849 10.009 13.5155 11.4701 13.01C12.0714 14.636 12.5396 16.3082 12.8701 18.01C11.9699 18.3387 11.0184 18.5046 10.0601 18.5ZM14.6901 17.01C14.3629 15.4966 13.9353 14.0066 13.4101 12.55H13.7501C13.7895 12.5403 13.8307 12.5403 13.8701 12.55H13.9801H14.0801H14.5601C15.6124 12.553 16.6569 12.7322 17.6501 13.08C17.1044 14.6704 16.0679 16.0464 14.6901 17.01ZM14.5601 10.5C14.3501 10.5 14.1401 10.5 13.9401 10.5C13.8106 10.4837 13.6796 10.4837 13.5501 10.5C13.2783 10.5167 13.0078 10.5501 12.7401 10.6H12.6401C12.3501 9.93 12.0501 9.28 11.7201 8.6C13.5107 7.98506 15.2305 7.18049 16.8501 6.2C17.6535 7.48937 18.0732 8.98085 18.0601 10.5C18.0601 10.67 18.0601 10.84 18.0601 11.01C16.9267 10.6602 15.7461 10.4882 14.5601 10.5Z" fill="white"/>
</svg>
