<svg width="75" height="70" viewBox="0 0 75 70" fill="none" xmlns="http://www.w3.org/2000/svg">
<path d="M38.0647 16.6769C32.6231 16.701 31.9389 16.727 29.8013 16.8236C27.6637 16.9248 26.2088 17.2387 24.9351 17.6986C23.599 18.1652 22.3902 18.8932 21.3933 19.8317C20.3776 20.7532 19.5933 21.866 19.0949 23.0927C18.604 24.2602 18.2718 25.5969 18.1832 27.5473C18.097 29.5091 18.0749 30.1332 18.0981 35.1205C18.1213 40.1032 18.1492 40.727 18.2536 42.6834C18.3629 44.6375 18.705 45.9689 19.2067 47.1343C19.7262 48.3387 20.4152 49.3589 21.5353 50.3748C22.653 51.3907 23.7738 52.0143 25.0944 52.4764C26.3748 52.925 27.83 53.2283 29.966 53.3083C32.1069 53.3859 32.7888 53.4059 38.2355 53.3817C43.6821 53.3576 44.3612 53.3316 46.5014 53.235C48.634 53.1337 50.0939 52.8199 51.3675 52.36C52.7028 51.8931 53.9107 51.1651 54.9069 50.2268C56.0176 49.201 56.6971 48.1749 57.2053 46.9659C57.6936 45.796 58.0258 44.4617 58.117 42.5067C58.2031 40.5495 58.2253 39.9254 58.2021 34.9404C58.1789 29.9554 58.1509 29.3316 58.0466 27.3729C57.9372 25.4211 57.5927 24.0874 57.0935 22.9242C56.5838 21.702 55.7891 20.5962 54.7648 19.6838C53.7595 18.7538 52.5439 18.0365 51.2033 17.5821C49.9228 17.1336 48.4626 16.8304 46.3292 16.7503C44.1882 16.6727 43.5088 16.6527 38.0597 16.6769L38.0672 16.6768L38.0647 16.6769ZM36.2829 19.9929L38.0826 19.9849C43.4365 19.9611 44.0707 19.9744 46.1841 20.0545C48.1396 20.1261 49.2037 20.4219 49.9117 20.6688C50.8482 20.9973 51.5193 21.3935 52.2241 22.0328C52.9289 22.672 53.3654 23.2803 53.7328 24.1366C54.0115 24.7801 54.3419 25.7513 54.4379 27.5403C54.5447 29.4737 54.5674 30.054 54.5902 34.9518C54.613 39.8496 54.5957 40.4324 54.5069 42.3667C54.4275 44.1565 54.1037 45.1283 53.8335 45.7765C53.5157 46.5747 53.0059 47.2975 52.3419 47.8913C51.643 48.5368 50.9782 48.9366 50.0423 49.2734C49.3416 49.5289 48.2802 49.8318 46.3231 49.9231C44.2105 50.0196 43.5764 50.0431 38.2225 50.0668C32.8687 50.0905 32.2319 50.0727 30.1185 49.9949C28.1631 49.921 27.1014 49.6275 26.3934 49.3782C25.521 49.0883 24.7309 48.623 24.0811 48.0166C23.4109 47.4278 22.8937 46.7089 22.5673 45.9128C22.2911 45.2693 21.9582 44.2981 21.8622 42.5091C21.758 40.5757 21.7352 39.9954 21.7124 35.093C21.6896 30.1929 21.707 29.6147 21.7932 27.6804C21.8751 25.8906 22.1965 24.9165 22.4692 24.2683C22.8286 23.4111 23.2619 22.7966 23.9607 22.1512C24.6596 21.5057 25.3244 21.1059 26.2603 20.7691C26.966 20.5136 28.0249 20.2107 29.9795 20.1194C31.829 20.0332 32.5457 20.0071 36.2829 19.9883L36.2829 19.9929ZM48.7995 22.9839C48.4836 22.9853 48.1709 23.0437 47.8795 23.1557C47.5881 23.2676 47.3236 23.431 47.1011 23.6365C46.8786 23.842 46.7025 24.0856 46.5828 24.3533C46.4631 24.621 46.4022 24.9077 46.4035 25.1969C46.4049 25.4861 46.4685 25.7722 46.5906 26.0389C46.7128 26.3055 46.8912 26.5475 47.1156 26.751C47.34 26.9545 47.606 27.1156 47.8984 27.225C48.1909 27.3343 48.504 27.3899 48.82 27.3885C49.4582 27.3857 50.0692 27.1509 50.5185 26.7359C50.9678 26.3209 51.2187 25.7596 51.216 25.1756C51.2133 24.5915 50.9572 24.0324 50.504 23.6214C50.0508 23.2104 49.4377 22.9811 48.7995 22.9839ZM38.1088 25.6053C36.7428 25.5919 35.3874 25.8272 34.1215 26.2978C32.8556 26.7683 31.7044 27.4645 30.7351 28.346C29.7657 29.2275 28.9975 30.2765 28.4752 31.432C27.9529 32.5876 27.6869 33.8265 27.6927 35.0768C27.6985 36.327 27.976 37.5636 28.5091 38.7145C29.0421 39.8653 29.82 40.9075 30.7976 41.7803C31.7751 42.6532 32.9327 43.3392 34.2029 43.7985C35.4731 44.2577 36.8307 44.4811 38.1964 44.4555C40.8996 44.405 43.4733 43.3835 45.3619 41.6118C47.2506 39.84 48.3027 37.46 48.2911 34.9855C48.2796 32.5109 47.2054 30.1404 45.3004 28.3854C43.3954 26.6305 40.8123 25.6319 38.1088 25.6053ZM38.1241 28.911C39.8971 28.9032 41.6004 29.5402 42.8594 30.6821C44.1184 31.8239 44.8299 33.377 44.8374 34.9996C44.845 36.6223 44.1479 38.1816 42.8996 39.3346C41.6513 40.4875 39.954 41.1397 38.1811 41.1475C36.4081 41.1554 34.7048 40.5183 33.4458 39.3765C32.1868 38.2346 31.4753 36.6816 31.4677 35.0589C31.4602 33.4363 32.1573 31.8769 33.4056 30.724C34.6539 29.571 36.3512 28.9189 38.1241 28.911Z" fill="#0D0D0D"/>
<path d="M73.4468 35.0067C73.4468 53.1883 57.3142 68.075 37.2234 68.075C17.1326 68.075 1 53.1883 1 35.0067C1 16.8252 17.1326 1.93848 37.2234 1.93848C57.3142 1.93848 73.4468 16.8252 73.4468 35.0067Z" stroke="#0D0D0D" stroke-width="2"/>
</svg>
