<svg width="75" height="70" viewBox="0 0 75 70" fill="none" xmlns="http://www.w3.org/2000/svg">
<path d="M73.7998 35.0067C73.7998 53.1883 57.6673 68.075 37.5764 68.075C17.4856 68.075 1.35303 53.1883 1.35303 35.0067C1.35303 16.8252 17.4856 1.93848 37.5764 1.93848C57.6673 1.93848 73.7998 16.8252 73.7998 35.0067Z" stroke="#0D0D0D" stroke-width="2"/>
<g clip-path="url(#clip0_214_460)">
<path fill-rule="evenodd" clip-rule="evenodd" d="M15.9254 23.7508C16.212 22.6129 16.9168 21.5969 17.9241 20.8692C18.9314 20.1415 20.1817 19.7453 21.4701 19.7454L55.5916 19.7454C56.88 19.7453 58.1302 20.1415 59.1376 20.8692C60.1449 21.5969 60.8496 22.6129 61.1363 23.7508L38.5308 36.2668L15.9254 23.7508ZM15.7832 26.6924L15.7832 44.9912L32.2838 35.8263L15.7832 26.6924ZM35.0078 37.3383L16.3263 47.7112C16.7879 48.5929 17.5164 49.3377 18.427 49.8589C19.3376 50.3801 20.3929 50.6564 21.4701 50.6554L55.5916 50.6554C56.6685 50.6556 57.7235 50.3788 58.6336 49.8571C59.5437 49.3355 60.2716 48.5904 60.7325 47.7087L42.051 37.3358L38.5308 39.2857L35.0078 37.3358L35.0078 37.3383ZM44.7779 35.8289L61.2785 44.9912L61.2785 26.6924L44.7779 35.8263L44.7779 35.8289Z" fill="#0D0D0D"/>
</g>
<defs>
<clipPath id="clip0_214_460">
<rect width="41.9956" height="40.1831" fill="white" transform="translate(17.5332 14.9152)"/>
</clipPath>
</defs>
</svg>
