<svg width="21" height="20" viewBox="0 0 21 20" fill="none" xmlns="http://www.w3.org/2000/svg">
<path d="M10.0598 0.246826C7.68532 0.246925 5.3883 1.09194 3.57981 2.63067C1.77131 4.16941 0.569343 6.30145 0.188975 8.64531C-0.191393 10.9892 0.27466 13.3919 1.50374 15.4236C2.73282 17.4553 4.64473 18.9833 6.89736 19.7343C7.39736 19.8218 7.58486 19.5218 7.58486 19.2593C7.58486 19.0218 7.57235 18.2343 7.57235 17.3968C5.05984 17.8593 4.40984 16.7844 4.20984 16.2219C3.98792 15.6748 3.63612 15.19 3.18484 14.8093C2.83484 14.6218 2.33484 14.1593 3.17233 14.1468C3.49212 14.1815 3.79883 14.2928 4.06647 14.4712C4.33412 14.6497 4.55481 14.89 4.70984 15.1718C4.84661 15.4175 5.03052 15.6338 5.25103 15.8083C5.47154 15.9828 5.72432 16.1121 5.99487 16.1887C6.26543 16.2654 6.54845 16.2879 6.82772 16.2549C7.10699 16.222 7.37701 16.1343 7.62232 15.9968C7.66561 15.4884 7.89218 15.0131 8.25984 14.6594C6.03484 14.4094 3.70984 13.5468 3.70984 9.72186C3.69579 8.728 4.06253 7.76643 4.73484 7.03436C4.42912 6.17058 4.46489 5.22264 4.83484 4.38436C4.83484 4.38436 5.67231 4.12185 7.58484 5.40936C9.22113 4.95933 10.9486 4.95933 12.5848 5.40936C14.4973 4.10936 15.3348 4.38436 15.3348 4.38436C15.7048 5.22263 15.7406 6.17058 15.4348 7.03436C16.1092 7.76518 16.4762 8.72759 16.4598 9.72186C16.4598 13.5593 14.1223 14.4094 11.8973 14.6594C12.136 14.9012 12.3198 15.1917 12.4363 15.5109C12.5527 15.8301 12.5991 16.1706 12.5723 16.5094C12.5723 17.8469 12.5598 18.9218 12.5598 19.2594C12.5598 19.5219 12.7473 19.8344 13.2473 19.7344C15.496 18.9772 17.4024 17.4456 18.6263 15.4129C19.8501 13.3802 20.3117 10.9787 19.9287 8.63706C19.5457 6.29547 18.343 4.1662 16.5353 2.62934C14.7276 1.09248 12.4326 0.248061 10.0598 0.246826Z" fill="white"/>
</svg>
