<svg width="21" height="20" viewBox="0 0 21 20" fill="none" xmlns="http://www.w3.org/2000/svg">
<path d="M10.0601 5.00012C9.07115 5.00012 8.10445 5.29337 7.28221 5.84277C6.45996 6.39218 5.8191 7.17307 5.44066 8.08671C5.06222 9.00034 4.96321 10.0057 5.15613 10.9756C5.34906 11.9455 5.82526 12.8364 6.52452 13.5357C7.22379 14.2349 8.1147 14.7111 9.08461 14.904C10.0545 15.097 11.0598 14.998 11.9735 14.6195C12.8871 14.2411 13.668 13.6002 14.2174 12.778C14.7668 11.9557 15.0601 10.989 15.0601 10.0001C15.0601 8.67404 14.5333 7.40227 13.5956 6.46459C12.6579 5.52691 11.3861 5.00012 10.0601 5.00012ZM10.0601 13.0001C9.46671 13.0001 8.88669 12.8242 8.39335 12.4945C7.9 12.1649 7.51548 11.6964 7.28842 11.1482C7.06136 10.6 7.00195 9.99679 7.1177 9.41485C7.23346 8.83291 7.51918 8.29836 7.93874 7.8788C8.3583 7.45924 8.89285 7.17352 9.47479 7.05777C10.0567 6.94201 10.6599 7.00142 11.2081 7.22848C11.7563 7.45555 12.2248 7.84006 12.5545 8.33341C12.8841 8.82676 13.0601 9.40678 13.0601 10.0001C13.0601 10.7958 12.744 11.5588 12.1814 12.1214C11.6188 12.6841 10.8557 13.0001 10.0601 13.0001ZM15.0601 4.00012C14.8623 4.00012 14.6689 4.05877 14.5045 4.16865C14.34 4.27853 14.2119 4.43471 14.1362 4.61744C14.0605 4.80016 14.0407 5.00123 14.0793 5.19521C14.1179 5.38919 14.2131 5.56738 14.353 5.70723C14.4928 5.84708 14.671 5.94232 14.865 5.98091C15.0589 6.01949 15.26 5.99969 15.4427 5.924C15.6255 5.84831 15.7816 5.72014 15.8915 5.55569C16.0014 5.39124 16.0601 5.1979 16.0601 5.00012C16.0601 4.73491 15.9547 4.48055 15.7672 4.29302C15.5796 4.10548 15.3253 4.00012 15.0601 4.00012ZM20.0001 6.24012C19.9835 5.38555 19.8212 4.54007 19.5201 3.74012C19.2408 3.01219 18.8117 2.35111 18.2604 1.79982C17.7091 1.24853 17.048 0.819338 16.3201 0.540122C15.5201 0.239021 14.6746 0.0766897 13.8201 0.060122C12.8501 0.000122014 12.5301 0.00012207 10.0601 0.00012207C7.59006 0.00012207 7.27006 0.000122014 6.30006 0.060122C5.44548 0.0766897 4.6 0.239021 3.80006 0.540122C3.07212 0.819338 2.41105 1.24853 1.85976 1.79982C1.30846 2.35111 0.879275 3.01219 0.600059 3.74012C0.298958 4.54007 0.136626 5.38555 0.120059 6.24012C0.0600585 7.22012 0.0600586 7.54012 0.0600586 10.0001C0.0600586 12.4601 0.0600585 12.7801 0.120059 13.7601C0.136626 14.6147 0.298958 15.4602 0.600059 16.2601C0.879275 16.9881 1.30846 17.6491 1.85976 18.2004C2.41105 18.7517 3.07212 19.1809 3.80006 19.4601C4.6 19.7612 5.44548 19.9236 6.30006 19.9401C7.30006 19.9401 7.59006 20.0001 10.0601 20.0001C12.5301 20.0001 12.8501 20.0001 13.8201 19.9401C14.6746 19.9236 15.5201 19.7612 16.3201 19.4601C17.048 19.1809 17.7091 18.7517 18.2604 18.2004C18.8117 17.6491 19.2408 16.9881 19.5201 16.2601C19.8212 15.4602 19.9835 14.6147 20.0001 13.7601C20.0001 12.7601 20.0601 12.4601 20.0601 10.0001C20.0601 7.54012 20.0601 7.22012 20.0001 6.24012ZM18.0001 13.6701C17.9825 14.3047 17.8644 14.9325 17.6501 15.5301C17.4728 16.0025 17.1927 16.4295 16.8301 16.7801C16.4815 17.143 16.0537 17.4202 15.5801 17.5901C14.9811 17.8132 14.3491 17.9349 13.7101 17.9501C12.7701 17.9501 12.4801 18.0001 10.0501 18.0001C7.62006 18.0001 7.34006 18.0001 6.40006 18.0001C5.76208 17.9837 5.13081 17.8655 4.53006 17.6501C4.05772 17.4729 3.63073 17.1928 3.28006 16.8301C2.91721 16.4815 2.63998 16.0537 2.47006 15.5801C2.24786 14.9843 2.12621 14.3558 2.11006 13.7201C2.11006 12.7201 2.11006 12.4701 2.11006 10.0501C2.11006 7.63012 2.11006 7.34012 2.11006 6.38012C2.1273 5.74133 2.2489 5.10966 2.47006 4.51012C2.64262 4.04075 2.91959 3.61674 3.28006 3.27012C3.62863 2.90728 4.05647 2.63004 4.53006 2.46012C5.12905 2.23702 5.76105 2.11535 6.40006 2.10012C7.34006 2.00012 7.63006 2.00012 10.0601 2.00012C12.4901 2.00012 12.7801 2.00012 13.7201 2.00012C14.3622 2.01645 14.9973 2.13807 15.6001 2.36012C16.0694 2.53268 16.4934 2.80965 16.8401 3.17012C17.2029 3.5187 17.4801 3.94653 17.6501 4.42012C17.8949 5.02869 18.0335 5.67471 18.0601 6.33012C18.0601 7.33012 18.1101 7.58012 18.1101 10.0001C18.1101 12.4201 18.0601 12.7101 18.0601 13.6701H18.0001Z" fill="white"/>
</svg>
