<svg width="80" height="80" viewBox="0 0 80 80" fill="none" xmlns="http://www.w3.org/2000/svg">
<path opacity="0.1" d="M80 40C80 62.0914 62.0914 80 40 80C17.9086 80 0 62.0914 0 40C0 17.9086 17.9086 0 40 0C62.0914 0 80 17.9086 80 40Z" fill="#FAC90D"/>
<path fill-rule="evenodd" clip-rule="evenodd" d="M38.1758 37.6474C37.7049 37.9361 37.5572 38.5518 37.8458 39.0226C38.7644 40.521 39.5468 42.0084 40.0666 43.3592C40.265 43.8746 40.8437 44.1316 41.3591 43.9333C41.8745 43.7349 42.1315 43.1562 41.9332 42.6408C41.3544 41.137 40.5065 39.536 39.551 37.9774C39.2623 37.5065 38.6466 37.3588 38.1758 37.6474Z" fill="#FAC90D"/>
<path fill-rule="evenodd" clip-rule="evenodd" d="M48.5903 36.6926C49.0362 37.0185 49.1334 37.6442 48.8076 38.0901C47.6505 39.6732 46.6313 41.79 45.9142 43.4056C45.6902 43.9104 45.0994 44.1381 44.5946 43.914C44.0898 43.69 43.8621 43.0992 44.0862 42.5944C44.8097 40.964 45.9005 38.6781 47.1928 36.9099C47.5187 36.464 48.1444 36.3668 48.5903 36.6926Z" fill="#FAC90D"/>
<path fill-rule="evenodd" clip-rule="evenodd" d="M46.2397 28.0368C48.5815 25.3591 61.1051 22 61.1051 22C61.1051 22 58.9763 35.395 57.1029 37.5372C55.7076 39.1326 51.2628 38.1355 49.0846 37.5225C50.7133 35.0259 52.5996 32.5871 54.2593 30.6508C54.6187 30.2315 54.5701 29.6002 54.1508 29.2407C53.7315 28.8813 53.1002 28.9299 52.7407 29.3492C51.0679 31.3009 49.1286 33.7983 47.4317 36.3959C46.4766 34.6199 44.3879 30.1543 46.2397 28.0368ZM30 46H25V58H30V55.9567C31.0203 55.9151 32.5258 55.8614 33.0475 55.8825C34.8337 55.9548 36.1676 56.3807 37.5163 56.8114C38.7745 57.2132 40.0456 57.6191 41.7089 57.7457C42.127 57.7775 42.5338 57.8186 42.9282 57.8584C44.3524 58.0022 45.6148 58.1296 46.6583 57.7457C47.9909 57.2553 55.6053 53.529 56.5571 52.5484C57.5089 51.5677 57.033 48.9201 54.0824 49.4104C52.6265 49.6523 50.9389 50.3479 49.4083 50.9787C47.8369 51.6264 46.431 52.2058 45.6113 52.1561C43.9933 52.058 39.7101 51.2736 39.7101 51.2736L44.6279 51.3333C44.6279 51.3333 45.3226 51.3704 46.2776 50.6852C47.2326 50 48.086 48.0375 46.6583 48.0375C45.2306 48.0375 43.7077 47.5472 43.7077 47.5472L37.6161 46.1743C37.6161 46.1743 35.5222 45.7821 34.6655 46.1743C33.9604 46.4972 31.0185 47.551 30 47.9136V46ZM27.8777 25.6694C27.8777 25.6694 38.2129 28.4416 40.1455 30.6514C41.638 32.358 40.0289 35.9128 39.2186 37.4434C38.1303 35.7217 36.9186 34.052 35.7853 32.6145C35.4434 32.1808 34.8146 32.1064 34.3809 32.4483C33.9472 32.7903 33.8728 33.419 34.2147 33.8528C35.3378 35.2773 36.5121 36.9017 37.5506 38.5478C35.6831 39.0536 32.2815 39.7506 31.1806 38.4917C29.6345 36.7239 27.8777 25.6694 27.8777 25.6694Z" fill="#FAC90D"/>
</svg>
