<svg width="80" height="80" viewBox="0 0 80 80" fill="none" xmlns="http://www.w3.org/2000/svg">
<path opacity="0.1" d="M80 40C80 62.0914 62.0914 80 40 80C17.9086 80 0 62.0914 0 40C0 17.9086 17.9086 0 40 0C62.0914 0 80 17.9086 80 40Z" fill="#8C68D1"/>
<path d="M16.5891 35.7838C16.2268 34.6001 15.8246 33.4291 15.5183 32.2327C15.3009 31.3845 15.188 30.5064 15.0727 29.6358C14.9741 28.8891 15.4778 28.391 16.2234 28.4307C16.9901 28.4717 17.7574 28.5097 18.5401 28.5501C18.7775 27.7613 19.1066 27.0072 19.6132 26.3418C20.5311 25.1362 21.7685 24.5077 23.2341 24.3036C23.6465 24.246 24.0658 24.2252 24.4823 24.22C24.6768 24.2171 24.7601 24.152 24.8343 23.9773C25.374 22.7117 26.2787 21.8203 27.5566 21.3314C29.5522 20.5674 32.1507 21.4421 33.2928 23.2646C33.4172 23.463 33.5216 23.5229 33.7407 23.4209C34.6443 23.0005 35.552 23.1418 36.4505 23.4416C36.6227 23.4993 36.7106 23.4901 36.8196 23.3298C38.2366 21.2426 40.9173 20.4821 43.2461 21.4991C43.4788 21.6006 43.7087 21.709 43.9586 21.822C44.0208 21.7338 44.0961 21.6485 44.1469 21.5499C44.5684 20.7421 45.2736 20.3396 46.1184 20.1442C47.1231 19.9118 48.1117 19.9355 49.057 20.399C50.1506 20.9358 50.9025 21.8676 51.2596 23.068C51.926 23.192 52.5803 23.2537 53.197 23.4416C54.6135 23.8723 55.6797 24.7614 56.3227 26.1273C56.3991 26.2893 56.4961 26.313 56.6524 26.3153C58.4974 26.3476 60.3024 26.6336 62.0714 27.1727C62.6145 27.3381 62.9682 27.7677 62.9511 28.3708C62.8929 30.4217 62.5415 32.4184 61.9476 34.3747C61.8073 34.8377 61.6407 35.2926 61.4867 35.7515C61.7793 35.7861 62.0828 35.789 62.3687 35.8622C63.3716 36.1194 64.0442 37.0892 63.9968 38.1397C63.881 40.7251 63.4332 43.2499 62.6396 45.7084C61.8592 48.1249 60.7667 50.3937 59.3959 52.5259C58.0815 54.5704 56.5229 56.4103 54.7909 58.1008C53.9905 58.8826 52.9871 59.2747 51.9231 59.5249C50.7742 59.7954 49.6058 59.9193 48.4289 59.9303C45.1709 59.9603 41.9123 59.9816 38.6537 59.992C35.8982 60.0006 33.1422 60.0104 30.3874 59.9781C28.9087 59.9608 27.43 59.8599 25.9815 59.5198C24.6249 59.2009 23.5267 58.4825 22.5495 57.4648C20.2921 55.1159 18.3935 52.5207 16.9405 49.5951C15.7237 47.143 14.8668 44.5634 14.4121 41.8598C14.2062 40.6346 14.0927 39.3903 14.0059 38.1495C13.9124 36.8188 14.9353 35.7844 16.2616 35.7833C16.3923 35.7838 16.5229 35.7838 16.5891 35.7838ZM17.442 45.2858C17.4551 45.3429 17.4614 45.3907 17.4768 45.4351C18.0992 47.2548 18.9024 48.9892 19.8882 50.637C21.1815 52.7998 22.7663 54.7255 24.5468 56.4927C24.9187 56.8617 25.3631 57.1074 25.8532 57.2769C27.1065 57.7099 28.4141 57.8091 29.7182 57.8425C31.9397 57.8996 34.1623 57.9019 36.3843 57.9042C39.6668 57.9082 42.9494 57.8978 46.232 57.8817C47.8145 57.8736 49.397 57.8448 50.9636 57.5698C52.0389 57.3807 52.9734 56.9794 53.7743 56.1629C56.297 53.5914 58.3473 50.7045 59.7695 47.3747C60.0593 46.6961 60.3115 46.0013 60.5916 45.2858C46.1726 45.2858 31.8124 45.2858 17.442 45.2858ZM61.8923 37.9287C46.625 37.9287 31.3754 37.9287 16.1276 37.9287C16.0272 38.7221 16.451 41.8252 16.839 43.1461C31.6099 43.1461 46.3826 43.1461 61.1524 43.1461C61.465 42.3245 61.9568 38.8743 61.8923 37.9287ZM37.9554 28.4648C37.9468 28.3166 37.9508 28.1442 37.9252 27.9758C37.5971 25.786 35.3089 24.6576 33.4457 25.6165C32.7623 25.9682 32.1553 25.6713 31.8837 24.9494C31.7765 24.664 31.6002 24.3872 31.3966 24.1606C30.9995 23.7184 30.4707 23.4705 29.9133 23.2963C28.3622 22.812 26.7631 23.7968 26.4887 25.3985C26.3871 25.9895 26.0049 26.3089 25.4076 26.3193C24.8195 26.3297 24.229 26.3268 23.6443 26.3804C22.8017 26.4577 22.0435 26.7621 21.4507 27.3993C21.0651 27.8138 20.8067 28.3027 20.6509 28.8499C21.3623 29.0096 22.0469 29.1445 22.7218 29.3187C24.5547 29.792 26.3141 30.4522 27.8407 31.614C28.4181 32.0534 28.9269 32.5856 29.4523 33.0624C31.3104 29.7742 34.116 28.1845 37.9554 28.4648ZM53.0823 35.7464C53.1325 35.7688 53.1485 35.7821 53.1645 35.7821C55.1229 35.7833 57.0814 35.7856 59.0399 35.7763C59.1203 35.7758 59.2401 35.6829 59.2744 35.6034C59.458 35.1761 59.636 34.7454 59.7866 34.3055C60.3417 32.6905 60.708 31.0357 60.7781 29.321C60.7861 29.1284 60.7314 29.0529 60.5448 29.0189C59.6058 28.8476 58.6736 28.6297 57.7295 28.4953C56.3101 28.2935 54.8879 28.3835 53.4834 28.6481C51.647 28.9935 49.9658 29.7194 48.4637 30.8547C47.2326 31.7853 46.1646 32.8623 45.5075 34.2899C45.2987 34.7443 45.0077 35.1986 45.1669 35.7596C45.2034 35.7677 45.2388 35.7827 45.2747 35.7827C46.9953 35.7838 48.7164 35.7867 50.437 35.7769C50.5186 35.7763 50.6332 35.6835 50.6766 35.6034C51.7092 33.6753 53.3139 32.4305 55.2992 31.6423C55.6387 31.5074 55.9724 31.5569 56.2719 31.7709C56.6016 32.0067 56.7568 32.3405 56.7117 32.7401C56.6627 33.1754 56.4094 33.4752 56.0061 33.6367C54.8691 34.0922 53.901 34.7887 53.0823 35.7464ZM44.0966 32.5025C46.4676 28.9387 49.8642 27.0447 54.0527 26.4329C53.5387 25.831 52.9175 25.451 52.1747 25.3484C51.6053 25.27 51.0212 25.2988 50.4438 25.2803C49.9452 25.2642 49.5659 24.9465 49.4666 24.4489C49.4232 24.2338 49.4078 24.013 49.3628 23.798C49.1859 22.951 48.6736 22.4003 47.8544 22.1824C46.9103 21.9316 46.0209 22.2308 45.5405 22.9279C45.3848 23.1539 45.2644 23.4059 45.1315 23.648C44.816 24.2235 44.0978 24.4126 43.6009 24.0096C42.9129 23.4514 42.1273 23.1914 41.2653 23.1649C40.0673 23.1274 39.1272 23.6215 38.442 24.6415C39.6218 25.82 40.113 27.2511 40.0479 28.8885C40.0405 29.0684 40.1472 29.0909 40.2539 29.1382C41.2014 29.5597 42.0572 30.1259 42.7651 30.8881C43.2426 31.4018 43.6619 31.9709 44.0966 32.5025ZM42.8273 35.7838C42.9853 35.3306 42.9853 35.3306 42.8661 34.9472C41.878 31.7784 38.6599 29.9131 35.4687 30.7111C33.1154 31.2992 31.6111 32.8323 30.8928 35.1605C30.7576 35.5993 30.9042 35.7838 31.3475 35.7838C35.0727 35.7838 38.798 35.7838 42.5233 35.7838C42.6265 35.7838 42.7303 35.7838 42.8273 35.7838ZM28.7284 35.7838C28.4511 35.3664 28.2332 35.0101 27.9879 34.6745C27.0649 33.4118 25.7739 32.6634 24.3716 32.088C22.529 31.3315 20.5996 30.9285 18.6291 30.714C18.211 30.6684 17.7888 30.6638 17.3501 30.6396C17.3975 30.8898 17.4368 31.0963 17.475 31.3027C17.75 32.7943 18.1984 34.2259 18.8984 35.5734C18.9794 35.7296 19.0678 35.7913 19.2458 35.789C20.0445 35.7786 20.8432 35.785 21.6419 35.7833C21.7097 35.7833 21.7771 35.7694 21.878 35.7585C21.4165 35.2943 20.983 34.8636 20.5557 34.4266C20.2208 34.0835 20.1518 33.598 20.3674 33.1846C20.7063 32.5354 21.5158 32.4305 22.064 32.9776C22.9414 33.8534 23.808 34.7402 24.6842 35.6178C24.7584 35.6922 24.8691 35.7763 24.9632 35.7769C26.1875 35.7873 27.4123 35.7838 28.7284 35.7838Z" fill="#855FCE"/>
</svg>
