<svg width="80" height="80" viewBox="0 0 80 80" fill="none" xmlns="http://www.w3.org/2000/svg">
<circle opacity="0.1" cx="40" cy="40" r="40" fill="#F84715"/>
<path fill-rule="evenodd" clip-rule="evenodd" d="M41.0005 29C43.4858 29 45.5005 26.9853 45.5005 24.5C45.5005 22.0147 43.4858 20 41.0005 20C38.5152 20 36.5005 22.0147 36.5005 24.5C36.5005 26.9853 38.5152 29 41.0005 29ZM54.9206 31.4404C55.2297 32.5008 54.6206 33.6111 53.5601 33.9201C51.1847 34.6124 49.0384 35.1337 47.0005 35.4812V46.9944V47V58C47.0005 59.0693 46.1594 59.9495 45.0911 59.998C44.0229 60.0464 43.1055 59.246 43.0087 58.1811L42.0087 47.1811C42.0032 47.1206 42.0005 47.0602 42.0005 47H40.0005C40.0005 47.0602 39.9978 47.1206 39.9923 47.1811L38.9923 58.1811C38.8955 59.246 37.9781 60.0464 36.9099 59.998C35.8417 59.9495 35.0005 59.0693 35.0005 58V35.4443C32.9679 35.0938 30.8293 34.583 28.4658 33.9272C27.4014 33.6319 26.778 32.5296 27.0733 31.4653C27.3687 30.4009 28.4709 29.7775 29.5353 30.0728C34.1436 31.3515 37.6063 31.9845 41.0092 31.9997C44.4052 32.0149 47.8592 31.4152 52.4409 30.0799C53.5014 29.7708 54.6116 30.3799 54.9206 31.4404Z" fill="#F84715"/>
</svg>
