<svg width="80" height="80" viewBox="0 0 80 80" fill="none" xmlns="http://www.w3.org/2000/svg">
<circle opacity="0.1" cx="40" cy="40" r="40" fill="#27AE60"/>
<path d="M56.4833 25.5688C54.4659 23.5294 51.7406 22.4019 48.8095 22.3936C45.7925 22.3835 42.7691 23.5266 40.3466 25.5587C37.5916 23.1326 35.0994 21.9496 32.7526 21.9496C29.4751 21.9496 26.4342 23.2404 24.2109 25.5638C22.5398 27.2349 21.3948 29.429 20.8984 31.9092C20.7498 32.6546 21.2328 33.3794 21.9783 33.5285C22.7228 33.6762 23.4484 33.1941 23.5976 32.4486C23.9866 30.5033 24.8714 28.7954 26.1779 27.4886C27.898 25.6913 30.2334 24.7019 32.7527 24.7019C34.5779 24.7019 36.7889 25.9317 39.3009 28.333C39.5825 28.6161 39.9527 28.7725 40.3431 28.7729C40.3435 28.7729 40.3445 28.7729 40.3448 28.7729C40.7343 28.7729 41.1045 28.6175 41.3866 28.3354C43.4145 26.3074 46.1072 25.1459 48.777 25.1459C48.7857 25.1459 48.7939 25.1459 48.8022 25.1459C51.027 25.1519 53.0068 25.9679 54.5113 27.4886C56.2765 29.3322 57.2485 31.7469 57.2485 34.289C57.2485 36.8331 56.2545 39.3079 54.549 41.0519L40.3672 54.761L29.1218 43.8958C28.5755 43.3679 27.7044 43.3839 27.1759 43.9289C26.648 44.4757 26.6631 45.3468 27.2095 45.8747L39.4113 57.6637C39.6777 57.9215 40.0227 58.0504 40.3672 58.0504C40.7116 58.0504 41.0566 57.9215 41.3236 57.6642L56.4888 43.0037C58.7204 40.7225 60.0002 37.5463 60.0002 34.289C60.0002 31.0344 58.7566 27.9431 56.4833 25.5688Z" fill="#27AE60"/>
<path d="M57.523 37.4542H46.422C46.0431 37.4542 45.6816 37.6097 45.422 37.885L41.2491 42.2974L36.4427 31.3946C36.2362 30.9263 35.7867 30.6111 35.2762 30.5767C34.7684 30.5442 34.278 30.7942 34.0105 31.2304L30.1931 37.4542H21.3762C20.616 37.4542 20 38.0703 20 38.8304C20 39.5906 20.616 40.2066 21.3762 40.2066H30.9629C31.4413 40.2066 31.8859 39.958 32.1359 39.5497L34.9836 34.9075L39.5666 45.3029C39.7524 45.725 40.1373 46.0254 40.5914 46.1039C40.6694 46.1171 40.7478 46.124 40.8258 46.124C41.201 46.124 41.5638 45.9708 41.8258 45.6937L47.0148 40.2065H57.523C58.2831 40.2065 58.8992 39.5904 58.8992 38.8303C58.8991 38.0703 58.283 37.4542 57.523 37.4542Z" fill="#27AE60"/>
</svg>
