<svg width="80" height="80" viewBox="0 0 80 80" fill="none" xmlns="http://www.w3.org/2000/svg">
<circle opacity="0.1" cx="40" cy="40" r="40" fill="#2F80ED"/>
<g clip-path="url(#clip0_74_969)">
<path d="M53.9711 33.2401L46.7594 26.0284C46.268 25.5374 45.473 25.537 44.9816 26.0275L26.4072 44.56L28.1842 46.3411L45.8692 28.6959L51.304 34.1311L33.6592 51.8157L35.4399 53.5927L53.9723 35.0179C54.4625 34.5264 54.4621 33.7306 53.9711 33.2401Z" fill="#2F80ED"/>
<path d="M56.1098 25.6515L54.3488 23.8905C53.9388 23.4804 53.3023 23.4037 52.8067 23.7047L46.7271 27.3945L48.0323 29.545L53.2679 26.3672L53.6327 26.7324L50.4553 31.968L52.6059 33.2732L56.2956 27.1936C56.5966 26.6981 56.5198 26.0611 56.1098 25.6515Z" fill="#2F80ED"/>
<path d="M37.7868 54.1633L25.8371 42.2136C25.3461 41.7222 24.5494 41.7222 24.0585 42.2136C23.5671 42.7046 23.5671 43.5012 24.0585 43.9922L36.0082 55.9418C36.2535 56.1875 36.5754 56.3104 36.8975 56.3104C37.219 56.3104 37.5415 56.1875 37.7868 55.9418C38.2782 55.4509 38.2782 54.6543 37.7868 54.1633Z" fill="#2F80ED"/>
<path d="M37.4729 43.1788L25.7339 54.961L27.5157 56.7363L39.2547 44.9541L37.4729 43.1788Z" fill="#2F80ED"/>
<path d="M35.0012 40.707L23.2622 52.4892L25.0441 54.2645L36.783 42.4823L35.0012 40.707Z" fill="#2F80ED"/>
<path d="M30.4492 57.8529L22.1473 49.5506C21.6559 49.0595 20.8593 49.0588 20.3683 49.5506C19.8772 50.0416 19.8772 50.8377 20.3683 51.3292L28.6701 59.6315C28.9158 59.8772 29.2379 60 29.5598 60C29.8814 60 30.2039 59.8771 30.4491 59.6315C30.9402 59.1405 30.9402 58.3443 30.4492 57.8529Z" fill="#2F80ED"/>
<path d="M59.6313 20.3687C59.1399 19.8773 58.3441 19.8773 57.8527 20.3687L53.4501 24.7712C52.9587 25.2622 52.9587 26.0588 53.4501 26.5498C53.6958 26.7955 54.0174 26.9183 54.3394 26.9183C54.6614 26.9183 54.9834 26.7954 55.2287 26.5498L59.6312 22.1473C60.1227 21.6563 60.1227 20.8597 59.6313 20.3687Z" fill="#2F80ED"/>
<path d="M34.5997 38.3131L32.8208 40.0919L39.9065 47.1776L41.6854 45.3988L34.5997 38.3131Z" fill="#2F80ED"/>
</g>
<defs>
<clipPath id="clip0_74_969">
<rect width="40" height="40" fill="white" transform="translate(20 20)"/>
</clipPath>
</defs>
</svg>
